<svg id="Calque_1" data-name="Calque 1" xmlns="http://www.w3.org/2000/svg" viewBox="0 0 32.32 32.12"><defs><style>.cls-1{fill:#faf4f2;}.cls-2{fill:#fcf7f6;}.cls-3{fill:#fcf8f7;}.cls-4{fill:#f9f0ed;}.cls-5{fill:#f9f1ed;}.cls-6{fill:#f9f0ef;}.cls-7{fill:#fcfdfc;}.cls-8{fill:#fdf9fd;}.cls-9{fill:#f8f1f0;}.cls-10{fill:#faf2f2;}.cls-11{fill:#fbf3f3;}.cls-12{fill:#f9efed;}.cls-13{fill:#faf2f0;}.cls-14{fill:#faf3f0;}.cls-15{fill:#fbf8fe;}.cls-16{fill:#edc77c;}.cls-17{fill:#ebbe5f;}.cls-18{fill:#e5ad2f;}.cls-19{fill:#faefea;}.cls-20{fill:#faf3ef;}.cls-21{fill:#fcfbfe;}.cls-22{fill:#f1cc87;}.cls-23{fill:#faf5f7;}.cls-24{fill:#ebc481;}.cls-25{fill:#f9f6f2;}.cls-26{fill:#f7e9db;}.cls-27{fill:#fdf8f6;}.cls-28{fill:#fcf6f6;}.cls-29{fill:#fcf9f4;}.cls-30{fill:#f7eee1;}.cls-31{fill:#f1cd8c;}.cls-32{fill:#f4d5a7;}.cls-33{fill:#f7f0f2;}.cls-34{fill:#faf4ef;}.cls-35{fill:#f3d8a6;}.cls-36{fill:#f1d79e;}.cls-37{fill:#fdfdfe;}.cls-38{fill:#fbf4f5;}.cls-39{fill:#f8f5f7;}.cls-40{fill:#fefdfc;}.cls-41{fill:#fcfdfe;}.cls-42{fill:#faefe9;}.cls-43{fill:#fdfefe;}.cls-44{fill:#fcfaf6;}.cls-45{fill:#f4d9ad;}.cls-46{fill:#fcf9fe;}.cls-47{fill:#fdfdfc;}.cls-48{fill:#faf0eb;}.cls-49{fill:#fcf4f2;}.cls-50{fill:#fdf9fb;}.cls-51{fill:#c24c4a;}.cls-52{fill:#cb5d3a;}.cls-53{fill:#e1a87e;}.cls-54{fill:#f6f1ef;}.cls-55{fill:#eeccbc;}.cls-56{fill:#e5b7b7;}.cls-57{fill:#e2aeb0;}.cls-58{fill:#e5a8ad;}.cls-59{fill:#fcf9f7;}.cls-60{fill:#fcf9f9;}.cls-61{fill:#fefefd;}.cls-62{fill:#f8f7f9;}.cls-63{fill:#faf4f5;}.cls-64{fill:#f7eff0;}.cls-65{fill:#fefafa;}.cls-66{fill:#eecdcc;}.cls-67{fill:#faf9f5;}.cls-68{fill:#f0dacc;}.cls-69{fill:#eccfc5;}.cls-70{fill:#fefefe;}.cls-71{fill:#fdfefd;}.cls-72{fill:#fefdfd;}.cls-73{fill:#e5b575;}.cls-74{fill:#d07382;}.cls-75{fill:#fcf6f5;}.cls-76{fill:#fbf6f6;}.cls-77{fill:#e09ba5;}.cls-78{fill:#fbf6f5;}.cls-79{fill:#f3dfc8;}.cls-80{fill:#f8efe9;}.cls-81{fill:#fcf7f7;}.cls-82{fill:#e4b1b6;}.cls-83{fill:#fdfcfe;}.cls-84{fill:#d17478;}.cls-85{fill:#f6e4d2;}.cls-86{fill:#f9eeea;}.cls-87{fill:#f9f4f0;}.cls-88{fill:#fcf9f8;}.cls-89{fill:#ebc36c;}.cls-90{fill:#de986b;}.cls-91{fill:#e1a16c;}.cls-92{fill:#dea561;}.cls-93{fill:#eabb69;}.cls-94{fill:#f7e5d2;}.cls-95{fill:#e9c0aa;}.cls-96{fill:#d68657;}.cls-97{fill:#efd8bf;}.cls-98{fill:#fbfcf7;}.cls-99{fill:#fbf8fb;}.cls-100{fill:#f4e2cc;}.cls-101{fill:#ebc069;}.cls-102{fill:#e8bb53;}.cls-103{fill:#f2d5a1;}.cls-104{fill:#ebbf68;}.cls-105{fill:#f7e6de;}.cls-106{fill:#f0d497;}.cls-107{fill:#f3e0be;}.cls-108{fill:#f5ddb7;}.cls-109{fill:#f6e4c5;}.cls-110{fill:#f2daad;}.cls-111{fill:#ecc887;}.cls-112{fill:#f5e4c7;}.cls-113{fill:#e6b13a;}.cls-114{fill:#e8b848;}.cls-115{fill:#f6deb6;}.cls-116{fill:#fbf6fa;}.cls-117{fill:#eccd81;}.cls-118{fill:#e7b13c;}.cls-119{fill:#faf4f1;}.cls-120{fill:#f0cb87;}.cls-121{fill:#e7b645;}.cls-122{fill:#eabf68;}.cls-123{fill:#efcc87;}.cls-124{fill:#edc675;}.cls-125{fill:#f8e3cc;}.cls-126{fill:#eabd5f;}.cls-127{fill:#edcb83;}.cls-128{fill:#fcfbf9;}.cls-129{fill:#fdfbf9;}.cls-130{fill:#faf7f7;}.cls-131{fill:#e4af52;}.cls-132{fill:#e5b14a;}.cls-133{fill:#e7bb76;}.cls-134{fill:#e8bc5a;}.cls-135{fill:#e9b977;}.cls-136{fill:#e4ac2d;}.cls-137{fill:#edc899;}.cls-138{fill:#f5e4d1;}.cls-139{fill:#edcfb6;}.cls-140{fill:#ebc28a;}.cls-141{fill:#fbf4f4;}.cls-142{fill:#f0d0b3;}.cls-143{fill:#f2dab1;}.cls-144{fill:#f5dfd5;}.cls-145{fill:#f4dcd0;}.cls-146{fill:#ecc3af;}.cls-147{fill:#f7e5d9;}.cls-148{fill:#f8eae0;}.cls-149{fill:#e7b88d;}.cls-150{fill:#dc968e;}.cls-151{fill:#dc968b;}.cls-152{fill:#e3adac;}.cls-153{fill:#d4817d;}.cls-154{fill:#e4b4af;}.cls-155{fill:#d06d75;}.cls-156{fill:#fdfcfc;}.cls-157{fill:#faf5f1;}.cls-158{fill:#be3c33;}.cls-159{fill:#da8e88;}.cls-160{fill:#f2d5d5;}.cls-161{fill:#be3f44;}.cls-162{fill:#efcccd;}.cls-163{fill:#da8e7c;}.cls-164{fill:#efcec5;}.cls-165{fill:#cd6840;}.cls-166{fill:#d17765;}.cls-167{fill:#f0d3cb;}.cls-168{fill:#c85d45;}.cls-169{fill:#fdfcfa;}.cls-170{fill:#e5b082;}.cls-171{fill:#d37f4b;}.cls-172{fill:#cb622e;}.cls-173{fill:#dc9a74;}.cls-174{fill:#bc3245;}.cls-175{fill:#c75b64;}.cls-176{fill:#f0d7d6;}.cls-177{fill:#e2a77e;}.cls-178{fill:#dd976e;}.cls-179{fill:#eec8b7;}.cls-180{fill:#f3dfc7;}.cls-181{fill:#e5ae83;}.cls-182{fill:#e8c29d;}.cls-183{fill:#e8b880;}.cls-184{fill:#cb6865;}.cls-185{fill:#d88975;}.cls-186{fill:#e0a3a2;}.cls-187{fill:#e0a6a9;}.cls-188{fill:#db8e84;}.cls-189{fill:#d7877a;}.cls-190{fill:#d88c7d;}.cls-191{fill:#e5b4a4;}.cls-192{fill:#e0a381;}.cls-193{fill:#d37847;}.cls-194{fill:#f2d5cf;}.cls-195{fill:#fcf8f8;}.cls-196{fill:#dd954a;}.cls-197{fill:#e4a971;}.cls-198{fill:#e39f4c;}.cls-199{fill:#d98d29;}.cls-200{fill:#f2d5ba;}.cls-201{fill:#e5b467;}.cls-202{fill:#faf1e7;}.cls-203{fill:#d98d9d;}.cls-204{fill:#af1027;}.cls-205{fill:#bf3648;}.cls-206{fill:#e09b3d;}.cls-207{fill:#d17379;}.cls-208{fill:#f6e5e1;}.cls-209{fill:#b1121c;}.cls-210{fill:#c54f59;}.cls-211{fill:#e9bdc0;}.cls-212{fill:#fdfdfd;}.cls-213{fill:#faf4f8;}.cls-214{fill:#fbf6f4;}.cls-215{fill:#faf2f1;}.cls-216{fill:#fdf9f6;}.cls-217{fill:#fdfcfb;}.cls-218{fill:#edc8b3;}.cls-219{fill:#e1a989;}.cls-220{fill:#dc955b;}.cls-221{fill:#eacaac;}.cls-222{fill:#fcf6f7;}.cls-223{fill:#fbfafb;}.cls-224{fill:#f3e0d2;}.cls-225{fill:#e9bc86;}.cls-226{fill:#e8b68a;}.cls-227{fill:#ebc384;}.cls-228{fill:#f4e6cc;}.cls-229{fill:#fdfbf8;}.cls-230{fill:#f4e4d7;}.cls-231{fill:#f8e9df;}.cls-232{fill:#efcd8b;}.cls-233{fill:#f1d398;}.cls-234{fill:#eac276;}.cls-235{fill:#f7eadb;}.cls-236{fill:#eabd69;}.cls-237{fill:#f9f6f6;}.cls-238{fill:#edc678;}.cls-239{fill:#faf5f5;}.cls-240{fill:#e9bf80;}.cls-241{fill:#fdfaf7;}.cls-242{fill:#fcfaf8;}.cls-243{fill:#fbf5f4;}.cls-244{fill:#f9eeec;}.cls-245{fill:#d68789;}.cls-246{fill:#f2dbd5;}.cls-247{fill:#bf3d34;}.cls-248{fill:#d7857a;}.cls-249{fill:#d88e7a;}.cls-250{fill:#d37d6c;}.cls-251{fill:#f4e1db;}.cls-252{fill:#f6efea;}.cls-253{fill:#ebc4b5;}.cls-254{fill:#ebc1af;}.cls-255{fill:#e9c5af;}.cls-256{fill:#e9bd9a;}.cls-257{fill:#e6b593;}.cls-258{fill:#ecc5a5;}.cls-259{fill:#e3a986;}.cls-260{fill:#b82820;}.cls-261{fill:#de9e8f;}.cls-262{fill:#e7b5a4;}.cls-263{fill:#cf6d4b;}.cls-264{fill:#db9a92;}.cls-265{fill:#e1ada2;}.cls-266{fill:#f6ebe3;}.cls-267{fill:#d99175;}.cls-268{fill:#d47e55;}.cls-269{fill:#eec695;}.cls-270{fill:#f1d4b8;}.cls-271{fill:#efcea9;}.cls-272{fill:#f1d9bc;}.cls-273{fill:#d8802a;}.cls-274{fill:#e9be95;}.cls-275{fill:#e1a58d;}.cls-276{fill:#e1a596;}.cls-277{fill:#dfa08b;}.cls-278{fill:#d67b2e;}.cls-279{fill:#e6b384;}.cls-280{fill:#e6b484;}.cls-281{fill:#e8c09c;}.cls-282{fill:#da9362;}.cls-283{fill:#d47f47;}.cls-284{fill:#db9264;}.cls-285{fill:#e09e80;}.cls-286{fill:#d47841;}.cls-287{fill:#e3ad83;}.cls-288{fill:#f6e5d7;}.cls-289{fill:#ecc59b;}.cls-290{fill:#f9eae4;}.cls-291{fill:#eabe7f;}.cls-292{fill:#e9bb8a;}.cls-293{fill:#dd976b;}.cls-294{fill:#dfa064;}.cls-295{fill:#d48044;}.cls-296{fill:#ce6e29;}.cls-297{fill:#df985e;}.cls-298{fill:#e8b87f;}.cls-299{fill:#ebc88c;}.cls-300{fill:#cc6926;}.cls-301{fill:#d88959;}.cls-302{fill:#ecc17c;}.cls-303{fill:#f9f2ef;}.cls-304{fill:#f1d5d1;}.cls-305{fill:#efd7cc;}.cls-306{fill:#e3b296;}.cls-307{fill:#f2d6d0;}.cls-308{fill:#f1d0cd;}.cls-309{fill:#dc9b95;}.cls-310{fill:#e9c0ba;}.cls-311{fill:#f7e9e3;}.cls-312{fill:#dc9587;}.cls-313{fill:#fdfaf9;}.cls-314{fill:#d48377;}.cls-315{fill:#cb6029;}.cls-316{fill:#d47951;}.cls-317{fill:#e7b273;}.cls-318{fill:#e2aa64;}.cls-319{fill:#dc9555;}.cls-320{fill:#dc963f;}.cls-321{fill:#d6812c;}.cls-322{fill:#dfa24a;}.cls-323{fill:#dd9680;}.cls-324{fill:#d8907d;}.cls-325{fill:#eac08e;}.cls-326{fill:#ebc389;}.cls-327{fill:#edc896;}.cls-328{fill:#dfa063;}.cls-329{fill:#dc9454;}.cls-330{fill:#f1d6c8;}.cls-331{fill:#e09f7c;}.cls-332{fill:#f1e1d4;}.cls-333{fill:#dfa05e;}.cls-334{fill:#d17936;}.cls-335{fill:#df9f61;}.cls-336{fill:#e3b06f;}.cls-337{fill:#ecc5a7;}.cls-338{fill:#d7804f;}.cls-339{fill:#f4d7ca;}.cls-340{fill:#f4dccb;}.cls-341{fill:#e7baa3;}.cls-342{fill:#f3dcd6;}.cls-343{fill:#e3ab9d;}.cls-344{fill:#f6e6e0;}.cls-345{fill:#f3e9e4;}.cls-346{fill:#dc977c;}.cls-347{fill:#d57e56;}.cls-348{fill:#c5503b;}.cls-349{fill:#c65345;}.cls-350{fill:#cd6758;}.cls-351{fill:#ce7267;}.cls-352{fill:#f8efe8;}.cls-353{fill:#f0d6d0;}.cls-354{fill:#f2d5cc;}.cls-355{fill:#e7b89e;}.cls-356{fill:#e9c0af;}.cls-357{fill:#e0a584;}.cls-358{fill:#fdfefb;}.cls-359{fill:#fbf7f2;}.cls-360{fill:#e9ba89;}.cls-361{fill:#d4823a;}.cls-362{fill:#ebc19b;}.cls-363{fill:#fefcfd;}.cls-364{fill:#f7e3d8;}.cls-365{fill:#d07251;}.cls-366{fill:#d38064;}.cls-367{fill:#d0755f;}.cls-368{fill:#d48469;}.cls-369{fill:#c24c21;}.cls-370{fill:#d99080;}.cls-371{fill:#d07760;}.cls-372{fill:#f5e5e1;}.cls-373{fill:#dc9683;}.cls-374{fill:#d17055;}.cls-375{fill:#fdf2f3;}</style></defs><path class="cls-1" d="M.18,31.86Q.18,16.4.16.92C.16.17.33,0,1.08,0q15.48,0,31,0A.24.24,0,0,1,32,.38a6,6,0,0,1-2.6.23c-.55-.11-.89.32-1.31.55a1.1,1.1,0,0,1-1-.15,1.1,1.1,0,0,0-1-.34c-6.62,0-13.25,0-19.87,0a1.15,1.15,0,0,0-.94.41,1.16,1.16,0,0,1-1,.09A3.79,3.79,0,0,0,1.56.66c-.64,0-.74.48-.76,1,0,1.14,0,2.29,0,3.43a7.93,7.93,0,0,1,0,1.09c.12,3.74,0,7.49,0,11.24,0,4.15,0,8.3,0,12.45a3.74,3.74,0,0,1-.25,1.87A.29.29,0,0,1,.18,31.86Z"/><path class="cls-2" d="M32.06.26V0c.38-.08.23.21.23.36q0,15.56,0,31.12c0,.52-.09.63-.61.62-2.2,0-4.39,0-6.59,0a.28.28,0,0,1,.12-.39c1.4-.5,2.85-.21,4.28-.25,2.13-.05,2.13,0,2.13-2.1q0-13.53,0-27A2.83,2.83,0,0,1,32.06.26Z"/><path class="cls-3" d="M25.11,31.86v.24q-12,0-24,0c-.31,0-.74.27-.95-.23H.42a1.83,1.83,0,0,1,1.33-.39c1.73,0,3.47-.06,5.2,0,.44,0,.88,0,1.31,0s.57,0,.86,0c.7,0,1.41,0,2.12,0a26,26,0,0,1,2.79,0,18.92,18.92,0,0,1,2.13,0,9.37,9.37,0,0,1,1.06,0c.63-.05,1.26,0,1.89,0a18.22,18.22,0,0,1,2.09,0h1.05a14.74,14.74,0,0,1,1.88,0A1.23,1.23,0,0,1,25.11,31.86Z"/><path class="cls-4" d="M25.11,31.86h-1c-.3-.43,0-.66.3-.87a1.43,1.43,0,0,0,.65-.82,1.17,1.17,0,0,1,.17-.28c.81-.69.81-.88,0-1.64a1,1,0,0,1-.25-.2,1.09,1.09,0,0,0-1.13-.66c-.63-.07-1-.35-.91-1.06,0-.39,1.07-.55.23-1.11a.35.35,0,0,1,0-.3,3.37,3.37,0,0,0,.9-1,1.66,1.66,0,0,0,.83-1,.53.53,0,0,1,.26-.21.51.51,0,0,1,.38.33,1.15,1.15,0,0,1-.09,1c-.11.12,0,0-.07.09l-.25.23c.08,0,.11-.11.18-.16a6.77,6.77,0,0,0,.52-.56c.29-.74,1-1.1,1.46-1.73a1.68,1.68,0,0,1,.82-.22c1-.51,1-1.81,0-2.79a.92.92,0,0,1,0-.84c.29-.39.8-.59,1-1.06.13-.2.47-.21.47-.47s-.24-.15-.38-.17a2.42,2.42,0,0,1-.85-.16.57.57,0,0,1-.24-.27.94.94,0,0,1,.07-.86c.94-.8.95-.93.13-1.84a.32.32,0,0,1,0-.3c.34-.32.73-.61.61-1.17s0-1.07,0-1.6c0-.29,0-.58,0-.86a.94.94,0,0,0-.52-1A.59.59,0,0,1,28.16,8a.38.38,0,0,1,.14-.26,1.12,1.12,0,0,0,.7-.72,1.16,1.16,0,0,1,.2-.24c.11-.14.53-.28.06-.45a4.63,4.63,0,0,0-1.18,0A1.21,1.21,0,0,1,27.21,6a.81.81,0,0,1,0-.93A1.16,1.16,0,0,1,28,4.73c.55,0,.89-.17.83-.79,0-.3,0-.59,0-.89a11.81,11.81,0,0,1,0-1.19,2.07,2.07,0,0,1,.35-1.6h2.88c0,10.06,0,20.13,0,30.19,0,1.18-.36,1.49-1.49,1.44C28.77,31.8,26.94,31.86,25.11,31.86Z"/><path class="cls-5" d="M7.13,31.86H.42V6c.09-.07.22-.19.3-.14a5.75,5.75,0,0,1,2.5,1.76C2,9.05,2.46,10.73,2.51,12.35c0,0,.07.05.1,0s.05-.05.07-.1c.13-1-.2-2.1.25-3.1a.32.32,0,0,1,.36-.12,1.13,1.13,0,0,1,.34.92,7.85,7.85,0,0,1,0,1c0,.29,0,.58,0,.86-.1.54.27.82.61,1.11a.3.3,0,0,1,0,.29c-.91.64.32.82.28,1.28a56.14,56.14,0,0,1,.11,6.22A1,1,0,0,0,5.21,22a2.87,2.87,0,0,0,1,1c.26.4.53.74.91.1A.43.43,0,0,1,7.37,23c.3.29.41.71.73,1a.26.26,0,0,1,0,.29l-.24.23c.16,0,.17-.21.29-.27.51.07.74.48,1,.83,0,0-.15.12.05.1a.26.26,0,0,1,.21.08c.23.33.68.41.89.76a.42.42,0,0,1-.12.3c-.58.51-1,1.29-2,1.15-.59-.07-.78.46-1.13.75a.89.89,0,0,1-.84,0c-.92-1-1-1-1.88-.08s-.94,1.06,0,1.52h.88a7.22,7.22,0,0,1,.93,0,2.27,2.27,0,0,1,1,.17,1,1,0,0,1,.41.42A1.72,1.72,0,0,1,7.13,31.86Z"/><path class="cls-4" d="M5.21,1c0-.6.3-.73.82-.73q10.22,0,20.42,0c.52,0,.86.13.82.73-.32.31-.5.64-.09,1a1,1,0,0,1,.08.34q0,.9-.93.75a.75.75,0,0,1-.17-.1c-.07-.08-.07-.08,0,0a.25.25,0,0,1-.09.23c-.3.22-.44.58-.7.83a.34.34,0,0,1-.31,0c-.64-.86-.79.35-1.24.3a55.2,55.2,0,0,1-6.3.12c-.68-.21-1,.38-1.34.72a.93.93,0,0,1-1-.1c-.4-.63-1.05-.6-1.69-.63a22.61,22.61,0,0,1-4-.14c-.48-.2-.58-.88-1.19-.92a1.9,1.9,0,0,1-.89-.46L7.18,2.7c.07.1.18.17.26.27a.86.86,0,0,1,.07,1,.45.45,0,0,1-.28.16c-.39-.25-.59-.72-1.05-.89A.91.91,0,0,1,6,3a.7.7,0,0,0-.82-.49,2.08,2.08,0,0,1-.82-.17A.37.37,0,0,1,4.18,2a.45.45,0,0,1,.2-.27,1.55,1.55,0,0,1,.67-.14C5.85,1.6,5.47,1.27,5.21,1Z"/><path class="cls-4" d="M.42,5.05c0-1.31,0-2.61,0-3.91,0-.67.25-.92.91-.89s1.42,0,2.13,0c.53,0,.85.14.81.73a.69.69,0,0,1,0,.94l0,0a1.78,1.78,0,0,1-.9.49c-1.18.58-1.17.86.08,1.75a1.7,1.7,0,0,1,.2.94,1.26,1.26,0,0,1-.34,1c-1.15.12-1.25,0-1.11-1.34.09-.14-.16,0,0,0C1.72,5.67,1.08,5.44.42,5.05Z"/><path class="cls-6" d="M.42,5.05A6.12,6.12,0,0,0,1.47,5c.49-.09,1-.41.92.55,0,.56.55.38.91.42a4.23,4.23,0,0,0,1,.88.43.43,0,0,1,.06.31,2.79,2.79,0,0,1-1,.57.31.31,0,0,1-.29-.08c0-.11-.07-.31-.12-.31A2.23,2.23,0,0,1,1,6.09C.93,6,.61,6,.42,6Z"/><path class="cls-7" d="M4.27,1.92V1h1c.39.05,1-.16.91.54s-.57.38-.93.4S4.58,1.92,4.27,1.92Z"/><path class="cls-8" d="M27,1.94c-.3,0-.72.05-.67-.43s.5-.53.91-.53h.95a.74.74,0,0,1,.05,1A.94.94,0,0,1,27,1.94Z"/><path class="cls-9" d="M28.22,1.92V1c-.06-.76.45-.74,1-.72V1.94A.66.66,0,0,1,28.22,1.92Z"/><path class="cls-10" d="M25.35,30.19c0,.49,0,.94-.67,1-.36,0-.51.33-.53.68H22.23q-.48-.62-1,0H19.12c-.27-.35-.8-.35-1-.74A.76.76,0,0,1,18.3,30a42.85,42.85,0,0,1,6.41-.1A.94.94,0,0,1,25.35,30.19Z"/><path class="cls-11" d="M9.05,31.86H8.33c-.49-.56-.76-1.15-.18-1.81a19.44,19.44,0,0,1,6.09,0c.61.67.34,1.26-.16,1.83H11.21A1.6,1.6,0,0,0,9.05,31.86Z"/><path class="cls-12" d="M14.32,30.19H8.09a.53.53,0,0,1-.72,0l-.24-.25.12-.12a1.2,1.2,0,0,1,.33-.13,5.46,5.46,0,0,1,.9-.07c.31,0,.62,0,.94,0,.6,0,1.2,0,1.8,0a16,16,0,0,1,1.83,0,9.77,9.77,0,0,1,1.21,0c.33,0,.66,0,1,0s.65,0,1,0a7.85,7.85,0,0,1,1,0,8,8,0,0,1,1,0c.39,0,.78,0,1.18,0s.53,0,.79,0c.67,0,1.34,0,2,0a7.69,7.69,0,0,1,1,0c.3,0,.6,0,.89,0,.47,0,.8-.1.8-.65a1.77,1.77,0,0,1,.19-.82l.13-.11h.24a1.47,1.47,0,0,1,0,1.92v.24H18.16c-.67.36-.52,1.18-1,1.67h-1C15.61,31.3,15,30.73,14.32,30.19Z"/><path class="cls-13" d="M14.32,30.19a2.21,2.21,0,0,1,1.92,1.67H14.08Z"/><path class="cls-10" d="M17.2,31.86c.16-.65-.52-1.78,1-1.67,0,.41-.11.89.53,1,.42.05.42.39.43.7Z"/><path class="cls-14" d="M7.37,30.19h.72l.24,1.67H7.13Z"/><path class="cls-14" d="M9.05,31.86c0-.9.63-.69,1.14-.71s1.07-.09,1,.71Z"/><path class="cls-10" d="M21.27,31.86c0-.36,0-.73.54-.69s.41.39.42.69Z"/><path class="cls-15" d="M28.23,18v.95a3,3,0,0,1,0,3.11h-.95l-.15-.15a2,2,0,0,1-.19-1c.11-1.6-.28-3.22.25-4.8a.77.77,0,0,1,1,0h0A1.48,1.48,0,0,1,28.23,18Z"/><path class="cls-13" d="M28.22,22c0-1,0-2.07,0-3.11.68-.08,1,.18,1,.92a7,7,0,0,0,0,1.29C29.26,21.88,28.91,22.13,28.22,22Z"/><path class="cls-15" d="M23.18,26.12c-.09.73.23,1.06,1,.95a.78.78,0,0,1,.16.87.65.65,0,0,1-.26.26,2.16,2.16,0,0,1-.94.15,1.48,1.48,0,0,1-.92-.24,1.37,1.37,0,0,1-.28-.91,2.34,2.34,0,0,1,.14-.95A.62.62,0,0,1,22.3,26,.73.73,0,0,1,23.18,26.12Z"/><path class="cls-16" d="M23.26,25a1.7,1.7,0,0,0,0,.22l-.12.12a1.69,1.69,0,0,1-.79.18c-.1,0-.26,0-.29.07s.15.19.22.31a.26.26,0,0,1,0,.28l0,0a14.09,14.09,0,0,1-1.36.92c-1.11-.15-1.21-.33-1-1.71.2-.43.63-.45,1-.57a1.48,1.48,0,0,1,.36-.1,5.43,5.43,0,0,1,.9,0,2.57,2.57,0,0,1,.87.11A.61.61,0,0,1,23.26,25Z"/><path class="cls-17" d="M28.29,13l0,.25-.11.12a1.09,1.09,0,0,0-.66.74c0,.1-.06.2-.09.3a4.27,4.27,0,0,1-1.16,1.76.46.46,0,0,1-.31-.17,2.53,2.53,0,0,1-.13-1.67c.11-.36.17-.73.26-1.09a.88.88,0,0,1,.19-.32,1.49,1.49,0,0,1,.88-.23,2.94,2.94,0,0,1,.88.1A.62.62,0,0,1,28.29,13Z"/><path class="cls-18" d="M25.16,22.8,25.1,23a.72.72,0,0,1-.93.09.81.81,0,0,1-.17-.9.77.77,0,0,1,.23-.28c.5-.13.57-.69.95-1,.68-.2,1.09,0,1.12.76a1.17,1.17,0,0,1-.11.33C25.9,22.35,25.47,22.5,25.16,22.8Z"/><path class="cls-19" d="M28.22,6c.31,0,.62,0,.93,0s.88-.16.94.41-.52.49-.91.54a.78.78,0,0,1-1,.06A.77.77,0,0,1,28.22,6Z"/><path class="cls-20" d="M28.23,18V16.06h.95a.69.69,0,0,1,0,1C29.28,17.76,29,18.08,28.23,18Z"/><path class="cls-21" d="M28.22,16.06h-.94c-.54-.63-.06-1.28,0-1.92h0a.79.79,0,0,1,1,0,.77.77,0,0,1,0,1Z"/><path class="cls-22" d="M29.15,10.08V12A.68.68,0,0,1,28,11.8,2,2,0,0,1,28.2,10,.72.72,0,0,1,29.15,10.08Z"/><path class="cls-23" d="M28.23,15.1l0-1a.65.65,0,0,1,0-.89l.06,0c.77-.12.92.28.93,1S28.94,15.19,28.23,15.1Z"/><path class="cls-24" d="M28.2,8a.73.73,0,0,0,.06.21l-.09.11c-.46.17-.65.61-1,1a1.2,1.2,0,0,1-.33.13A1.06,1.06,0,0,1,26,9.14a.83.83,0,0,1-.09-.87c.32-.38.78-.62,1-1.07a.42.42,0,0,1,.31-.07A5.7,5.7,0,0,1,28.2,8Z"/><path class="cls-25" d="M25.35,30V28c1.06,0,.81.93.89,1.48S25.71,29.9,25.35,30Z"/><path class="cls-26" d="M28.22,1.92l1,0V3.13a.73.73,0,0,1-.83.15c-.38-.27-.56-.79-1.08-.9A1.21,1.21,0,0,1,27,2.17V1.94Z"/><path class="cls-27" d="M27.27,22c0,.4.11.9-.53,1s-.3.74-.67.95a1.12,1.12,0,0,1-.33-.95,1.18,1.18,0,0,1,.35-.94l0,0a1.06,1.06,0,0,1,.31-.21.87.87,0,0,1,.88.2Z"/><path class="cls-28" d="M28.2,8c-.52,0-1,0-.94-.75a.25.25,0,0,1,0-.35.73.73,0,0,1,.91.1h1V7.2c-.25.32-.7.37-.95.7Z"/><path class="cls-29" d="M22.25,26.13v-.25l.09-.12c.27-.22.65-.3.86-.6h0c.35,0,.86-.15.89.43s-.55.46-.93.52Z"/><path class="cls-30" d="M28.26,8.17c.77-.12,1,.26.92,1a.76.76,0,0,1-1,0,.77.77,0,0,1,0-1Z"/><path class="cls-31" d="M28.27,9.12h.91l0,.95h-.92L28.11,10a.72.72,0,0,1,0-.77Z"/><path class="cls-32" d="M28.22,12h.94c.12.69-.09,1.09-.87,1h-.11A.7.7,0,0,1,28.22,12Z"/><path class="cls-33" d="M29.18,17v-1c.39.05,1-.15.92.54S29.53,17,29.18,17Z"/><path class="cls-34" d="M28.26,3.15l.92,0v1a.73.73,0,0,1-.79.18.69.69,0,0,1-.28-.2.8.8,0,0,1,0-.82Z"/><path class="cls-35" d="M24.14,23l1,0c.14.71-.17,1-.88,1a.31.31,0,0,1-.23-.17.85.85,0,0,1,0-.73Z"/><path class="cls-36" d="M24.22,24c0,.62-.23,1-1,.94l-.1,0a.74.74,0,0,1,0-1,.73.73,0,0,1,1,0Z"/><path class="cls-37" d="M28.22,5.05h-1l-.13-.14A.76.76,0,0,1,27.3,4a.74.74,0,0,1,.91.07l0,0A.67.67,0,0,1,28.22,5.05Z"/><path class="cls-38" d="M28.22,5.05V4.11l.95,0Q29.33,5.2,28.22,5.05Z"/><path class="cls-39" d="M24.14,28v-.94q1.11-.15,1,1h0A.67.67,0,0,1,24.14,28Z"/><path class="cls-40" d="M27.26,5V6l-.14.13A.76.76,0,0,1,26.19,6a.82.82,0,0,1,.1-1,.73.73,0,0,1,1,0Z"/><path class="cls-41" d="M28.22,7h-.95a.67.67,0,0,1,0-1h.95Z"/><path class="cls-42" d="M28.19,30.45a.4.4,0,0,1-.45.42c-.36,0-.48-.22-.44-.54s.24-.37.5-.35A.4.4,0,0,1,28.19,30.45Z"/><path class="cls-43" d="M25.35,24.2a2.8,2.8,0,0,1-.09.58.5.5,0,0,1-.57.32c-.18,0-.25-.17-.27-.34a.43.43,0,0,1,.45-.54l.48,0Z"/><path class="cls-44" d="M26.07,23v1c-.18.27-.46.23-.72.24h0V23A.51.51,0,0,1,26.07,23Z"/><path class="cls-45" d="M26.07,23h-.72l-.19-.21c-.09-.76.39-.77.93-.73Z"/><path class="cls-46" d="M28.23,7.9c-.07-.76.46-.71.95-.7C29.24,8,28.76,8,28.23,7.9Z"/><path class="cls-47" d="M22.22,27.06v1c-.84.68-1.82.33-2.75.38a10.75,10.75,0,0,1-1.27,0,9,9,0,0,1-1,0c-.61,0-1.23,0-1.84,0a8.85,8.85,0,0,1-1,0,10.43,10.43,0,0,1-1.25,0c-1.21.05-2.41.06-3.62,0a3.18,3.18,0,0,1-1.06-.09A1,1,0,0,1,8,28.06a.8.8,0,0,1,.08-1c.51,0,1.11.19,1.26-.64.09-.45.57-.27.9-.31l.13.09a1,1,0,0,0,1.1.53h1.15c2.13,0,4.26,0,6.4,0,.66,0,1.27.38,1.95.25A1.09,1.09,0,0,1,22.22,27.06Z"/><path class="cls-43" d="M4.26,21.09V14.14L4.38,14a.87.87,0,0,1,.83,0,.66.66,0,0,1,.21.29,3.13,3.13,0,0,1,.13.91c0,.33,0,.66,0,1,0,1.2,0,2.39,0,3.59a1.87,1.87,0,0,1-.3,1.26A.74.74,0,0,1,4.26,21.09Z"/><path class="cls-48" d="M5.21,30h-1a1.46,1.46,0,0,1,0-1.92c-.12-.79.28-1,1-1s1,.31.9,1a.75.75,0,0,1,.13.86C6,29.28,5.52,29.54,5.21,30Z"/><path class="cls-49" d="M3.06,7.68H3.3a5.34,5.34,0,0,0,1,1.22.45.45,0,0,1-.14.31.7.7,0,0,1-.87-.09H3.06a4.3,4.3,0,0,0,0,3.83c-.66.46-1,.23-1-.51,0-1.19,0-2.39,0-3.58C2,8.08,2.67,8,3.06,7.68Z"/><path class="cls-50" d="M3.06,13c-1.49-.39-.5-1.56-.67-2.34-.11-.48-.52-1.44.67-1.49Z"/><path class="cls-51" d="M4.26,13.19l0-.25.13-.13a1.83,1.83,0,0,1,.89-.18,1.83,1.83,0,0,1,.89.18.67.67,0,0,1,.24.26,8.39,8.39,0,0,1,.27.85c0,.12,0,.23.07.35a4,4,0,0,1-.1,1.62.49.49,0,0,1-.25.24A.32.32,0,0,1,6,16a1.87,1.87,0,0,1-.19-.83c0-.48-.35-.72-.61-1h0a4.28,4.28,0,0,0-.87-.83Z"/><path class="cls-52" d="M7.36,23.06a1,1,0,0,0-.23,0L7,22.88a1.76,1.76,0,0,1-.18-.9,1.48,1.48,0,0,1,.24-.92.71.71,0,0,1,.35-.19.87.87,0,0,1,.77.19,1.67,1.67,0,0,1,.24,1,1.47,1.47,0,0,1-.27,1A.66.66,0,0,1,7.36,23.06Z"/><path class="cls-53" d="M10.25,26.12l-.07-.24.1-.13a3.71,3.71,0,0,0,1-.73A.9.9,0,0,1,12,25a.64.64,0,0,1,.3.26,1.62,1.62,0,0,1-.07,1.57c-.28.21-.61.11-.92.13a3.87,3.87,0,0,1-1.08-.85Z"/><path class="cls-54" d="M4.26,28V30c-.8.11-1-.29-1-1S3.58,28,4.26,28Z"/><path class="cls-55" d="M9.05,25.16a2,2,0,0,1-1-1h0a.76.76,0,0,0,0-.21l.12-.15a1,1,0,0,1,1.08,0,.94.94,0,0,1,.28.85.87.87,0,0,1-.13.35l-.14.12a.54.54,0,0,0-.22,0Z"/><path class="cls-56" d="M3.3,9.12h.89l.16.12a.7.7,0,0,1-.11.91.71.71,0,0,1-.92-.06Z"/><path class="cls-57" d="M3.32,10.08h.91l.15.13a.76.76,0,0,1-.14.92A.74.74,0,0,1,3.32,11Z"/><path class="cls-58" d="M3.32,11h.9a.68.68,0,0,1,.2.84.55.55,0,0,1-.25.27A.73.73,0,0,1,3.31,12Z"/><path class="cls-59" d="M4.26,14.14c-.38,0-1,.16-.92-.53s.57-.37.92-.42l0,0a.71.71,0,0,1,0,.94Z"/><path class="cls-60" d="M7.13,23c0,.35.15.87-.42.91s-.49-.54-.54-.92l.13-.12a.7.7,0,0,1,.84.12Z"/><path class="cls-61" d="M6.17,23c-.74.11-1.06-.21-1-.95l.11-.12a.88.88,0,0,1,.82,0,.79.79,0,0,1,.21.27.76.76,0,0,1-.18.8Z"/><path class="cls-62" d="M8.09,27.07V28a.58.58,0,0,1-.55.23.76.76,0,0,1-.3-.1L7.13,28Q7,26.92,8.09,27.07Z"/><path class="cls-63" d="M6.17,29V28h1a.76.76,0,0,1,.11.93.76.76,0,0,1-.92.17Z"/><path class="cls-64" d="M5.21,30q-.15-1.11,1-1h0a.69.69,0,0,1,0,1Z"/><path class="cls-65" d="M6.17,30V29h1a.67.67,0,0,1,0,1h-1Z"/><path class="cls-66" d="M3.31,12h.91a.69.69,0,0,1,.1,1l-.11,0C3.44,13.07,3.21,12.68,3.31,12Z"/><path class="cls-67" d="M4.26,21.09h1a1.59,1.59,0,0,0,.13.13.7.7,0,0,1-.14.84h0C4.48,22.14,4.15,21.83,4.26,21.09Z"/><path class="cls-68" d="M10.18,25.88c-.51,0-.94,0-.91-.68l0-.08a.76.76,0,0,1,1,0,.62.62,0,0,1,0,.78Z"/><path class="cls-37" d="M8.09,24.2c-.14.24.29.77-.35.74-.23,0-.51-.18-.48-.42.07-.53.54-.24.83-.32Z"/><path class="cls-69" d="M7.36,23.06,8.09,23a.67.67,0,0,1,.08.91.48.48,0,0,0-.11.09C7.38,24,7.33,23.56,7.36,23.06Z"/><path class="cls-70" d="M9.05,25.16c0,.28.08.68-.43.65a.34.34,0,0,1-.22-.22c0-.51.37-.39.65-.43Z"/><path class="cls-61" d="M17.2,4.09h7l.13.14a.75.75,0,0,1-.16.9,1.62,1.62,0,0,1-.94.25c-.32,0-.65,0-1,0a8.17,8.17,0,0,1-1,0,17.42,17.42,0,0,1-1.77,0c-.39,0-.77,0-1.16,0a2.55,2.55,0,0,1-.95-.14A.64.64,0,0,1,17.06,5,.78.78,0,0,1,17.2,4.09Z"/><path class="cls-71" d="M9.29,4.09c1.69,0,3.38,0,5.07,0,.75,0,1,.28.92,1l-.13.13a1.82,1.82,0,0,1-.91.19,10.65,10.65,0,0,1-1.13,0c-.31,0-.63,0-.94,0s-.64,0-.95,0-.64,0-1,0a11,11,0,0,1-1.15,0,1.37,1.37,0,0,1-.74-.22.84.84,0,0,1-.22-.91A.59.59,0,0,1,8.4,4,.78.78,0,0,1,9.29,4.09Z"/><path class="cls-72" d="M15.28,5.05h1a.7.7,0,0,1,1,0h0a1.3,1.3,0,0,1,.33,1,1.44,1.44,0,0,1-.26,1,.89.89,0,0,1-.94.12A15.72,15.72,0,0,0,15.18,6a.77.77,0,0,1,.08-.9Z"/><path class="cls-73" d="M25.11,4.09l.24,0,.14.14a1.81,1.81,0,0,1,.18.92c0,.37,0,.75,0,1.12a1.75,1.75,0,0,1-.22.93.89.89,0,0,1-.3.24,1.21,1.21,0,0,1-.95,0A.55.55,0,0,1,24,7.06a1.36,1.36,0,0,1,0-.89.77.77,0,0,1,.19-.27c.36-.2.7-.41.66-.9A1.59,1.59,0,0,1,25,4.2Z"/><path class="cls-74" d="M6.15,2.91a.78.78,0,0,0,.11.18A.53.53,0,0,1,6,3.33a2.43,2.43,0,0,1-.93.11,1.15,1.15,0,0,1-.89-.35.73.73,0,0,1,.08-.94h1C5.44,2.53,5.93,2.56,6.15,2.91Z"/><path class="cls-75" d="M4.25,2.15l0,1-.16.13a.79.79,0,0,1-.94-.15.77.77,0,0,1,.1-1,1.57,1.57,0,0,1,1-.23Z"/><path class="cls-76" d="M7.39,4.05l0-1.16h0a1.7,1.7,0,0,1,1,.24.7.7,0,0,1,0,1l-.06,0a.63.63,0,0,1-.79.06Z"/><path class="cls-77" d="M6.26,3.09c.66,0,1,.23.89.92A1,1,0,0,1,7,4.18a.75.75,0,0,1-.93-.09.75.75,0,0,1,0-.94A.75.75,0,0,0,6.26,3.09Z"/><path class="cls-78" d="M8.33,4.09v-1q1.11-.15,1,1Z"/><path class="cls-72" d="M24.15,4.09c.05-.35-.15-.87.42-.91s.49.53.54.91l0,0a.73.73,0,0,1-1,0Z"/><path class="cls-79" d="M25.35,4c0-.51,0-1,.71-.92a.2.2,0,0,1,.31,0,.87.87,0,0,1,.1.88.59.59,0,0,1-.26.26.86.86,0,0,1-.87-.11Z"/><path class="cls-80" d="M17.2,5.05h-1c-.1-.74.22-1,1-1Z"/><path class="cls-81" d="M7.37,2.89H6.9a.44.44,0,0,1-.46-.55A.35.35,0,0,1,6.72,2a.49.49,0,0,1,.56.33,2.61,2.61,0,0,1,.09.57Z"/><path class="cls-82" d="M6.15,2.91c-.53,0-1,0-.92-.75C5.76,2.14,6.28,2.13,6.15,2.91Z"/><path class="cls-83" d="M26.07,2.9c-.29,0-.69.07-.65-.44,0-.08.14-.21.22-.22.5,0,.39.37.43.66Z"/><path class="cls-84" d="M7.15,4a.67.67,0,0,0,.24,0l0,0a1.09,1.09,0,0,1,.31.83,2.19,2.19,0,0,1-.13.91.47.47,0,0,1-.26.24A.33.33,0,0,1,7,5.9,1.89,1.89,0,0,1,6.82,5a1.12,1.12,0,0,1,.31-.87Z"/><path class="cls-85" d="M26.29,3.12h-.23c0-.07,0-.15,0-.22h0c.51,0,1,0,1-.73h.22a.74.74,0,0,1,.17.86.47.47,0,0,1-.26.26A.75.75,0,0,1,26.29,3.12Z"/><path class="cls-86" d="M4.25,7c-.74.1-1-.22-1-1v-1a1.24,1.24,0,0,1,1-.33,1.42,1.42,0,0,1,1,.26C5.86,6.11,4.7,6.36,4.25,7Z"/><path class="cls-87" d="M3.3,2.17v1A.68.68,0,0,1,3.42,4l-.12.13C2.81,4,2.05,4.35,2.12,3.4,2.17,2.72,2.32,2,3.3,2.17Z"/><path class="cls-6" d="M4.26,5.05h-1v-1h0a.75.75,0,0,1,.85-.16.53.53,0,0,1,.26.25A.78.78,0,0,1,4.26,5.05Z"/><path class="cls-71" d="M4.25,7c0-.36-.13-.84.43-.94s.51-.56.53-1l.12-.13a.89.89,0,0,1,.84,0,.74.74,0,0,1,.21.28,3,3,0,0,1,.12.89,2,2,0,0,1-.2,1.07c-.37.32-.78.59-1.16.89A.89.89,0,0,1,4.2,8a.62.62,0,0,1,0-.76Z"/><path class="cls-88" d="M4.25,7.2,4.3,8a.56.56,0,0,1-.1.86c-1,.14-.92-.56-.9-1.2S3.88,7.24,4.25,7.2Z"/><path class="cls-89" d="M22.23,29.93H20.07a.76.76,0,0,1,0-1,2.18,2.18,0,0,1,2.18,0A.74.74,0,0,1,22.23,29.93Z"/><path class="cls-90" d="M11.21,29.93H9.28a.72.72,0,0,1,0-1,1.8,1.8,0,0,1,1.92,0A.76.76,0,0,1,11.21,29.93Z"/><path class="cls-91" d="M11.21,29.93V29a1.52,1.52,0,0,1,1.9-.1.72.72,0,0,1,0,1Z"/><path class="cls-92" d="M13.13,29.93V29l.14-.15a.9.9,0,0,1,1.12.14.66.66,0,0,1-.11.91Z"/><path class="cls-93" d="M19.36,29.93H18.18a.68.68,0,0,1-.11-.9,1,1,0,0,1,1.1-.24.67.67,0,0,1,.31.24A.76.76,0,0,1,19.36,29.93Z"/><path class="cls-94" d="M24.14,28l1,0v1a.77.77,0,0,1-.85.16A.55.55,0,0,1,24,28.9a.76.76,0,0,1,.16-.86Z"/><path class="cls-95" d="M8.32,30H7.38a1.07,1.07,0,0,1,0-1,.77.77,0,0,1,1,0A.72.72,0,0,1,8.32,30Z"/><path class="cls-96" d="M8.32,30V29l.11-.12a.76.76,0,0,1,.76,0l.09.13v.9Z"/><path class="cls-97" d="M14.28,29.92l0-.88a.45.45,0,0,1,.26-.23.9.9,0,0,1,.7,0,.58.58,0,0,1,.23.26.72.72,0,0,1-.18.83Z"/><path class="cls-98" d="M15.27,29.94V29a.75.75,0,0,1,1-.06.78.78,0,0,1-.05,1Z"/><path class="cls-99" d="M16.24,30V29a.7.7,0,0,1,1,0,.74.74,0,0,1,0,1Z"/><path class="cls-100" d="M17.2,30V29l.11-.12A.82.82,0,0,1,18,28.8a.64.64,0,0,1,.25.21l0,.92Z"/><path class="cls-101" d="M22.23,29.93V29a.68.68,0,0,1,1-.06.7.7,0,0,1,0,1Z"/><path class="cls-102" d="M23.19,29.93V29l.12-.13a.67.67,0,0,1,.83.1h0a.69.69,0,0,1,0,1Z"/><path class="cls-103" d="M24.15,29.94V29h1C25.23,29.76,24.9,30.06,24.15,29.94Z"/><path class="cls-104" d="M19.36,29.93V29a.48.48,0,0,1,.72,0v.92Z"/><path class="cls-105" d="M7.38,29v.93H7.13V28h.25A.72.72,0,0,1,7.38,29Z"/><path class="cls-106" d="M27.26,14.14c0,.64,0,1.28,0,1.92,0,1.67,0,3.33-.05,5-.24,0-.34-.12-.43-.3a2.64,2.64,0,0,1-.11-1c-.12-1.24.22-2.53-.38-3.73C26.11,15.17,27.17,14.89,27.26,14.14Z"/><path class="cls-107" d="M27,20.86l.21.2,0,1h-1C26.15,21.4,26,20.75,27,20.86Z"/><path class="cls-108" d="M20.07,29h-.72l0-.05a.62.62,0,0,1,0-.9l2.88,0,1,0a.63.63,0,0,1,0,.92l0,0H20.07Z"/><path class="cls-109" d="M22.22,27.06H21Q20.91,27,21,26.9s.06-.07.08-.07c-.05-1,.69-.65,1.19-.72Z"/><path class="cls-110" d="M23.18,29c0-.3,0-.61,0-.92h1V29Z"/><path class="cls-4" d="M21.27,24.92a.51.51,0,0,1-.21,0l-.18-.1c-.43-.58-1.06-.49-1.64-.49-2.08,0-4.15,0-6.23,0a4,4,0,0,1-1.65-.2c-.45-.4-.84-.85-1.28-1.26a12.26,12.26,0,0,1-.14-4.27c.07-.9.8-.95,1.51-1s1.68.23,2.38-.44a.57.57,0,0,1,.32-.2,1.71,1.71,0,0,1,.9,1.23c-.28.34-.78.59-.46,1.28.22-.45.09-.94.44-1.24a.26.26,0,0,1,.32,0,1.13,1.13,0,0,1,.24.68c0,.31,0,.62,0,.93a2.16,2.16,0,0,1,0,.36c0,.28,0,.57,0,.85s.16.66.59.67.66-.28.66-.73a1.6,1.6,0,0,1,.24-.82A7.67,7.67,0,0,0,18.23,19c.91-.65,1.77-1.36,3-1.11.38.08.8,0,1.1.36.49,1.19.22,2.43.23,3.65a2.21,2.21,0,0,1-.17,1c-.27.4-.89.58-.81,1.23A1.24,1.24,0,0,1,21.27,24.92Z"/><path class="cls-4" d="M12.17,25.14a.79.79,0,0,0-.22-.06c.14-.49.58-.52,1-.53,2.42-.07,4.83-.07,7.25,0a1.27,1.27,0,0,1,.86.35l0,.05c-.29.26-.66.14-1,.2a1.29,1.29,0,0,1-.95.34,8.83,8.83,0,0,1-1,0c-.62,0-1.25.06-1.88,0s-1.28.06-1.92,0A2.78,2.78,0,0,1,12.17,25.14Z"/><path class="cls-111" d="M19.12,25.15h.95c.17.65-.52,1.78,1,1.68a.53.53,0,0,1,0,.22L19.14,27a5.16,5.16,0,0,1-.26-1.24A.71.71,0,0,1,19.12,25.15Z"/><path class="cls-112" d="M21.27,24.92V24a.66.66,0,1,1,.93.94Z"/><path class="cls-113" d="M22.21,24.92l0-.94.1-.12a.73.73,0,0,1,.73,0l.11.12,0,.95Z"/><path class="cls-114" d="M22.24,25.88c-.32-.06-.86.17-.89-.32s.57-.33.91-.4a.6.6,0,0,1,0,.74Z"/><path class="cls-115" d="M22.27,25.9c0-.24,0-.49,0-.74h.93C23.28,25.89,22.8,25.93,22.27,25.9Z"/><path class="cls-116" d="M26.33,13c0,.07,0,.13,0,.2a2,2,0,0,1-.72,1.18c-.19.22-.31.5-.59.64a.91.91,0,0,1-.9-.1,1.33,1.33,0,0,1-.27-.92,1.91,1.91,0,0,1,.13-.75,1,1,0,0,1,.34-.41,2,2,0,0,0,1-1,1.35,1.35,0,0,1,.67-.21h.36a1.14,1.14,0,0,1,.67.24C27.19,12.54,26.46,12.58,26.33,13Z"/><path class="cls-117" d="M26.31,16.06c.58,0,.73.27.72.79,0,1,0,2,0,3a.61.61,0,0,1-.77.05,5.1,5.1,0,0,1-.52-2.77,2,2,0,0,1,.18-1l.15-.15Z"/><path class="cls-118" d="M25.08,14.86c.09-.24-.07-.57.25-.72a.52.52,0,0,1,.71,0c0,.62,0,1.24,0,1.87v0a.77.77,0,0,1-.7.19.8.8,0,0,1-.32-.19,1,1,0,0,1-.16-.89A1.29,1.29,0,0,1,25.08,14.86Z"/><path class="cls-119" d="M26.33,13c-.19-.62.37-.74.69-1a2.71,2.71,0,0,1,0-2.84h.22l.15.13a1.84,1.84,0,0,1,.21,1,17.81,17.81,0,0,1,0,1.79,1.16,1.16,0,0,1-.36.93Z"/><path class="cls-120" d="M28.21,13.18c0,.3,0,.59,0,.89l-.94.06C27.17,13.4,27.5,13.1,28.21,13.18Z"/><path class="cls-121" d="M27.24,12.94l.05-.94a.62.62,0,0,1,.92,0v0c0,.32,0,.64,0,1Z"/><path class="cls-122" d="M26,14.18l-.71,0a1.47,1.47,0,0,0,1-.93C26.29,13.55,26.4,13.93,26,14.18Z"/><path class="cls-123" d="M25.11,16.06l.24,0a1.19,1.19,0,0,1,.32.84c.22.93-.47,2,.37,2.83a.56.56,0,0,1,.12.3c-.16.33-.52.5-.72.81-.16.12-.4.1-.5.31s-.26.65-.57.85l-.18,0L24,21.92a1.77,1.77,0,0,1-.22-1c0-.94,0-1.89,0-2.83A2.19,2.19,0,0,1,24,17.2c.26-.42.79-.59,1-1.05Z"/><path class="cls-124" d="M24.86,21.08a.52.52,0,0,1,.48-.23l.73-.72v-.24a.14.14,0,0,1,.24,0H27v1A1,1,0,0,0,26.29,22l-.11,0h-.11c.09-.72-.17-1.09-.94-.95A.17.17,0,0,1,24.86,21.08Z"/><path class="cls-125" d="M24.19,22.05c0,.32,0,.64-.05,1v0a.73.73,0,0,1-1,.05.81.81,0,0,1-.06-1,.68.68,0,0,1,1,0Z"/><path class="cls-126" d="M24.86,21.08l.27,0c0,.52,0,1-.76.92C24.43,21.65,24.25,21.16,24.86,21.08Z"/><path class="cls-127" d="M28.21,12h-.92V10.07a.67.67,0,0,1,.93,0h0C28.22,10.72,28.22,11.36,28.21,12Z"/><path class="cls-128" d="M25.35,12q.15,1.11-1,1c-.54-1.67-.73-3.29.54-4.76a.89.89,0,0,1,1-.18l.16.14,0,.94s-.05.09-.07.14a1.19,1.19,0,0,0-.34,1.16A2.11,2.11,0,0,1,25.35,12Z"/><path class="cls-129" d="M27,9.15V12h-.71c-.48-.48-.23-1.13-.4-1.68a1.47,1.47,0,0,1-.08-.35,1,1,0,0,1,.23-.84l0,0Z"/><path class="cls-130" d="M27.27,6V7.21H27a.57.57,0,0,1-.9-.22.86.86,0,0,1,.2-1Z"/><path class="cls-131" d="M26.3,7c.16.32.48.17.72.25.14.76-.22,1-.94.93l-.06,0a2.69,2.69,0,0,1-.16-.29,1.23,1.23,0,0,1,0-.66A.64.64,0,0,1,26,6.94.22.22,0,0,1,26.3,7Z"/><path class="cls-132" d="M28.16,8.16c0,.32.07.64.11,1l-.09,0a.64.64,0,0,1-.93,0v0C27.18,8.47,27.39,8.05,28.16,8.16Z"/><path class="cls-133" d="M27.23,3.09c0-.31,0-.61,0-.92.84-.19,1.06.25,1,1l-.06,0A.64.64,0,0,1,27.23,3.09Z"/><path class="cls-134" d="M27.25,9.12l.93,0c0,.33,0,.65,0,1h-.93C27.28,9.75,27.27,9.44,27.25,9.12Z"/><path class="cls-135" d="M27.23,3.09l1,0c0,.32,0,.63,0,1l-.93,0L27.14,4a.74.74,0,0,1,.12-.88Z"/><path class="cls-136" d="M23.2,23l.95,0c0,.32,0,.64,0,1H23.2a.66.66,0,0,1-.13-.83Z"/><path class="cls-137" d="M27.25,5l-.94.07L26.18,5a.73.73,0,0,1,.13-.88h0A.72.72,0,0,1,27.24,4l0,.1Z"/><path class="cls-138" d="M26.3,7l-.22,0a.9.9,0,0,1-.32-.68A1.81,1.81,0,0,1,26,5.1.32.32,0,0,1,26.29,5l0,.12c0,.3,0,.6,0,.9S26.31,6.65,26.3,7Z"/><path class="cls-139" d="M13.13,29H9.27l0-.05a.63.63,0,0,1,0-.92h3.83a.61.61,0,0,1,0,.9Z"/><path class="cls-140" d="M19.12,25.88a.9.9,0,0,1,0,1.11l-6.73,0a.24.24,0,0,1,.11-.33,1.7,1.7,0,0,1,.76-.18,18.32,18.32,0,0,1,2,0c.72,0,1.43,0,1.94-.64a1.17,1.17,0,0,1,1-.3A1.25,1.25,0,0,1,19.12,25.88Z"/><path class="cls-141" d="M17.2,29H15.27a.71.71,0,0,1,0-1H17.2a.7.7,0,0,1,0,1Z"/><path class="cls-142" d="M13.11,29v-.9H14.3a.64.64,0,0,1,0,.93l-.07.06Z"/><path class="cls-143" d="M19.35,28.06c0,.3,0,.6,0,.9L18.21,29l-.07,0a.69.69,0,0,1,0-.95Z"/><path class="cls-144" d="M10.26,26.1c.52,0,1,0,1,.73.06,0,.09.09.06.14s0,.07-.06.07C10.47,27.19,10.14,26.88,10.26,26.1Z"/><path class="cls-145" d="M7.38,29V28l.71,0,.25,0a.66.66,0,0,1,0,.93h0Z"/><path class="cls-146" d="M8.32,29c0-.31,0-.62,0-.93h.95c0,.31,0,.62,0,.92Z"/><path class="cls-147" d="M14.33,29l0-.93h1v1Z"/><path class="cls-148" d="M18.17,28l0,.95H17.2V28Z"/><path class="cls-149" d="M11.24,27a.74.74,0,0,1,0-.21h.92a.16.16,0,0,1,.25,0V27Z"/><path class="cls-150" d="M5.25,19.89V16.07a.65.65,0,0,1,.93,0l0,0a1.38,1.38,0,0,1,.31,1c-.08.94.21,1.92-.24,2.82A.71.71,0,0,1,5.25,19.89Z"/><path class="cls-151" d="M5.25,19.89h.92a.76.76,0,0,1,.23.33,1,1,0,0,1-.22,1,.71.71,0,0,1-.94-.12l0,0Z"/><path class="cls-152" d="M4.29,14.1v-.94c.8-.13,1,.32.93,1Z"/><path class="cls-153" d="M5.24,14.13c.76-.09,1,.26.91,1a.62.62,0,0,1-.9,0Z"/><path class="cls-154" d="M5.25,15.08l.9,0,0,.94H5.25Z"/><path class="cls-155" d="M4.2,8.88c0-.29.07-.58.1-.86l.91-.11c.32.36.68.67,1,1a.38.38,0,0,1-.12.32,1.48,1.48,0,0,1-.92.21,1.16,1.16,0,0,1-.9-.32H4.19Z"/><path class="cls-156" d="M6.17,9.11a.36.36,0,0,0,0-.23c-.45-.83.34-1,.73-1.34a1.67,1.67,0,0,1,2.18-.43A.9.9,0,0,1,9,8.39a2.21,2.21,0,0,0-.53,1.75V12c0,.42,0,.84,0,1.26a1,1,0,0,1-1,1,1.37,1.37,0,0,1-1-.3c-.32-.18-.15-.49-.18-.74.1-.4-.2-.85.14-1.22.71-.78.41-1.41-.3-2A.77.77,0,0,1,6.17,9.11Z"/><path class="cls-157" d="M6.17,10.08c.87.11,1.43,1.1.83,1.65s-.49,1-.79,1.45A.19.19,0,0,1,6.13,13a1.64,1.64,0,0,1-.29-1A3.79,3.79,0,0,1,6,10.22Z"/><path class="cls-158" d="M6.42,16V14.1c.66-.21,1,.09,1,.71a1.75,1.75,0,0,1-.26,1.24A.53.53,0,0,1,6.42,16Z"/><path class="cls-159" d="M6.42,16l.73,0,.13.15c.19.67,0,1.06-.76,1a1.17,1.17,0,0,1-.34-.2c0-.33,0-.66,0-1A.88.88,0,0,0,6.42,16Z"/><path class="cls-160" d="M6.17,12l0,1L5.19,13a.82.82,0,0,1-.14-.86.59.59,0,0,1,.26-.26A.75.75,0,0,1,6.17,12Z"/><path class="cls-161" d="M5.16,12l0,1H4.32l-.1-1,.08,0A.57.57,0,0,1,5.16,12Z"/><path class="cls-162" d="M7.15,14.81c.15-.64-.17-.8-.73-.71l0-.18,1,0a.67.67,0,0,1,.1.85A.23.23,0,0,1,7.15,14.81Z"/><path class="cls-163" d="M6.18,17h.23a1.53,1.53,0,0,1,.34,1.19c0,.45.28.49.62.45a1,1,0,0,1,.87.34,2,2,0,0,1-.13,2.07H7.38a8.36,8.36,0,0,1-1.2-.93v-.25C6.17,18.93,6.17,18,6.18,17Z"/><path class="cls-164" d="M8.11,21.07V18.93A1.57,1.57,0,0,1,8,17.11.36.36,0,0,1,8.32,17c1.28,1.43,1.46,2.85.54,4.23a5.88,5.88,0,0,1-.44.77.23.23,0,0,1-.3,0Z"/><path class="cls-165" d="M8.12,22a.56.56,0,0,0,.21.06l.12.1a1.39,1.39,0,0,0,.73.68.8.8,0,0,1,.23.22.82.82,0,0,1,0,.79L9.3,24a2.06,2.06,0,0,1-1.13-.05c0-.31-.05-.61-.08-.91Z"/><path class="cls-166" d="M6.18,20.14c.8-.21,1,.4,1.2.93l-.25,0c-.35.24-.39.7-.67,1a.22.22,0,0,1-.28,0h0a.67.67,0,0,1,0-.94Z"/><path class="cls-167" d="M6.18,22l.24,0a.49.49,0,0,1,.7.07l0,.92h-1Z"/><path class="cls-168" d="M7.12,22.08,6.42,22c0-.52,0-1,.71-.92Z"/><path class="cls-169" d="M21,24.9c-2.6,0-5.2,0-7.79,0-.43,0-.88-.13-1.28.16l-.72.06-.12-.09a.66.66,0,0,1-.12-.27,1.06,1.06,0,0,1,.1-.72l.11-.1C14.12,24,17,24,20,24,20.64,24,21.17,24,21,24.9Z"/><path class="cls-170" d="M12.41,26.83h-.25c0-.56,0-1.13,0-1.69h2.15c.4.52.09.85-.32,1.14s-.67.23-.88.54Z"/><path class="cls-171" d="M10.29,25.88l-.07-.72a.71.71,0,0,1,1,0h0C11.3,25.88,10.82,25.92,10.29,25.88Z"/><path class="cls-172" d="M9.3,24.91V24l0,0a.77.77,0,0,1,.88-.16.55.55,0,0,1,.26.28.78.78,0,0,1-.19.9A1.17,1.17,0,0,1,9.3,24.91Z"/><path class="cls-173" d="M9.3,24.91h.95a.64.64,0,0,1,.93,0,1.55,1.55,0,0,1,0,.21h-1l-.91,0A.74.74,0,0,1,9.3,24.91Z"/><path class="cls-174" d="M4.3,9.12h.94a.76.76,0,0,1,0,1,.67.67,0,0,1-1,0l-.06,0Z"/><path class="cls-175" d="M4.29,10.05l.88,0,.16.13A1.68,1.68,0,0,1,5.26,12l-.1,0L4.3,12c0-.32,0-.65-.08-1S4.27,10.38,4.29,10.05Z"/><path class="cls-176" d="M6.16,21.1c0,.31,0,.63,0,.94h-1l0-1Z"/><path class="cls-177" d="M19.35,5.09h1.92a.72.72,0,0,1,.07,1,1,1,0,0,1-.36.22,2,2,0,0,1-1.63-.2A.7.7,0,0,1,19.35,5.09Z"/><path class="cls-178" d="M19.35,5.09V6l-.06.16a5.16,5.16,0,0,1-1,.88.34.34,0,0,1-.3-.17A1.7,1.7,0,0,1,17.84,6a1.05,1.05,0,0,1,.35-.88Z"/><path class="cls-179" d="M18.19,5.08l0,1a.69.69,0,0,1-.93,0l0-1Z"/><path class="cls-180" d="M24.15,4.09l1,0c0,.31,0,.61,0,.92a.64.64,0,0,1-.74.19A.43.43,0,0,1,24.14,5Z"/><path class="cls-181" d="M21.27,6V5.09h.95a.7.7,0,0,1,.16.84.53.53,0,0,1-.26.25A.72.72,0,0,1,21.27,6Z"/><path class="cls-182" d="M22.24,6c0-.31,0-.63,0-.94h1a.74.74,0,0,1,0,1A.75.75,0,0,1,22.24,6Z"/><path class="cls-183" d="M23.18,6l0-.9L24.14,5l0,.11a.63.63,0,0,1,0,.91h0A.65.65,0,0,1,23.18,6Z"/><path class="cls-184" d="M8.34,5,9,5.08a1.72,1.72,0,0,1,.49,1A1.07,1.07,0,0,1,9.33,7a3.57,3.57,0,0,1-1.13.06c-.4-.26-.8-.52-.86-1.06h0a3.7,3.7,0,0,0,.83-.89Z"/><path class="cls-185" d="M13.13,5.09H14.3a1.1,1.1,0,0,1,.34.89,1.57,1.57,0,0,1-.2.93.35.35,0,0,1-.33.12A9.53,9.53,0,0,0,13,6,.72.72,0,0,1,13.13,5.09Z"/><path class="cls-186" d="M9.32,6c-.38-.24-.23-.63-.29-1h1.23a.7.7,0,0,1,0,1A.71.71,0,0,1,9.32,6Z"/><path class="cls-187" d="M7.37,5V4.1l.9,0c0,.3,0,.59.07.89l0,.11A.71.71,0,0,1,7.37,5Z"/><path class="cls-188" d="M10.22,6l0-1h1a.69.69,0,0,1,.07.89.8.8,0,0,1-.91.18Z"/><path class="cls-189" d="M11.21,6V5.09h.95a.69.69,0,0,1,.18.77.63.63,0,0,1-.2.26.83.83,0,0,1-.82,0Z"/><path class="cls-190" d="M12.16,6V5.09h1V6A.64.64,0,0,1,12.16,6Z"/><path class="cls-191" d="M14.32,6c0-.3,0-.6,0-.91l1,0,.06.94-.13.13A.71.71,0,0,1,14.32,6Z"/><path class="cls-192" d="M16.24,7h1a1.22,1.22,0,0,1,1,.19.62.62,0,0,1,.15.34c-.06.71-.6.71-1.12.75a1.84,1.84,0,0,1-.9-.15c-.32-.35-.74-.58-1.08-.89a.37.37,0,0,1,.12-.33A.7.7,0,0,1,16.24,7Z"/><path class="cls-193" d="M18.09,7.19c-.31,0-.66.09-.9-.23l0-.92h.93l0,1C18.23,7.08,18.21,7.15,18.09,7.19Z"/><path class="cls-194" d="M16.24,7l-.95,0-.13-.11a.71.71,0,0,1,0-.79l.13,0C16.06,5.92,16.35,6.25,16.24,7Z"/><path class="cls-195" d="M25.11,8.16c-.94,1.49-.7,3.16-.72,4.79l-.23.24a.73.73,0,0,1-.24-.31,3.12,3.12,0,0,1-.11-1c0-.56,0-1.12,0-1.68S23.33,9.39,23,9a2,2,0,0,1-.16-1.19c.15-.74.54-1,1.27-.67l1,.12A.61.61,0,0,1,25.11,8.16Z"/><path class="cls-196" d="M23.18,6l1,0V7c-.24.23-.53.09-.8.13s-.52-.53-.91-.6a.82.82,0,0,1-.25-.2A.21.21,0,0,1,22.24,6h0Z"/><path class="cls-197" d="M23.18,7h1c0,.06,0,.13,0,.19-.51,0-1.07,0-1,.76a.69.69,0,0,1-.93.08A.82.82,0,0,1,22,7.22a.84.84,0,0,1,.21-.35A.78.78,0,0,1,23.18,7Z"/><path class="cls-198" d="M26.29,5l-.21.1a.59.59,0,0,1-.73,0v-1l1-.06Z"/><path class="cls-199" d="M24.14,6l0-.91L25.11,5C25.25,5.81,24.92,6.14,24.14,6Z"/><path class="cls-200" d="M25.35,5.09h.73V6.23a.49.49,0,0,1-.73,0Z"/><path class="cls-201" d="M25.35,6.22h.73v.69l0,.29a.54.54,0,0,1-.51.17.45.45,0,0,1-.24-.14Z"/><path class="cls-202" d="M25.11,8.16c0-.3,0-.6,0-.9l.21,0h0A2.1,2.1,0,0,1,26,8a.45.45,0,0,1,0,.2Z"/><path class="cls-203" d="M4.3,3.14h1a.75.75,0,0,1,0,1,.71.71,0,0,1-1,0h0a.71.71,0,0,1-.06-1Z"/><path class="cls-204" d="M5.23,4.08c0-.32,0-.63,0-.94h.88l0,.94-.11.11a.75.75,0,0,1-.74,0Z"/><path class="cls-129" d="M4.21,3.12l.06,1h-1v-1Z"/><path class="cls-205" d="M7.13,4.12v1a.69.69,0,0,1-1,0h0a.64.64,0,0,1,0-.94h0Z"/><path class="cls-206" d="M27.24,4l-.95.07v-1h1Z"/><path class="cls-207" d="M7.34,6c.29.28.88.29.77.9-.22.31-.62.07-.88.29a.8.8,0,0,1-1.08,0l.07-1.11c.27-.37.58-.3.9-.08Z"/><path class="cls-208" d="M7.12,6l-.9.08c0-.35,0-.7,0-1l1,0Z"/><path class="cls-209" d="M7.37,5l.94.1c.07.69-.22,1-.93.87C7.38,5.68,7.37,5.35,7.37,5Z"/><path class="cls-70" d="M4.26,4.07h1a.7.7,0,0,1,0,1h-1Z"/><path class="cls-210" d="M6.15,7.19a1.54,1.54,0,0,0,1-.23.87.87,0,0,1,0,.94c-.35.3-1.06.24-1,1-.76.11-1-.23-1-1C5.07,7.08,5.65,7.19,6.15,7.19Z"/><path class="cls-211" d="M5.22,5.05v-1h1c0,.31,0,.63,0,.94Z"/><path class="cls-212" d="M14.07,17.07c.08.65-.16,1-.86.92s-1.35,0-2,0-1,.28-.94,1c0,1.35,0,2.7,0,4.05l-.13.13A.73.73,0,0,1,9.27,23h0a1.38,1.38,0,0,1-.33-1,2.25,2.25,0,0,1,.11-1,13.25,13.25,0,0,0,0-3.72.82.82,0,0,1,.21-.36,1.67,1.67,0,0,1,1-.26c.34,0,.68,0,1,0a15.89,15.89,0,0,1,2.07,0A.84.84,0,0,1,14.07,17.07Z"/><path class="cls-213" d="M24.08,22H23.2a.72.72,0,0,1-1,0V18.22a.24.24,0,0,1,0-.33.86.86,0,0,1,.9,0,.7.7,0,0,1,.23.28,4.92,4.92,0,0,1,.14,1.62,1.65,1.65,0,0,0,.6,1.34Z"/><path class="cls-214" d="M22.23,18v.24H20.57c-.54,0-1.1-.12-1.35.62-.15.45-.67.31-1.06.33a1.05,1.05,0,0,1-1.06-.23.89.89,0,0,1,0-.89c.38-.35.76-.7,1.13-1.07a.35.35,0,0,1,.32.1c.28.54.74.59,1.3.59C20.64,17.66,21.5,17.39,22.23,18Z"/><path class="cls-215" d="M17.2,21.09c.08.67-.16,1-.9,1s-1.13-.19-1-1a1.26,1.26,0,0,1,1-.33A1.27,1.27,0,0,1,17.2,21.09Z"/><path class="cls-216" d="M15.05,18.21A5.79,5.79,0,0,1,15,19c0,.36.21.85-.32,1a.46.46,0,0,1-.58-.45c0-.47-.32-1.06.33-1.36a1.89,1.89,0,0,1,.59,0Z"/><path class="cls-217" d="M17.23,18.94c.32,0,.69-.1.93.23q.15,1.11-1,1l-.12-.1a.94.94,0,0,1-.1-.28,1.22,1.22,0,0,1,0-.6A.43.43,0,0,1,17.23,18.94Z"/><path class="cls-218" d="M15.24,18.23l-.19,0h0c-.41-.27-.9-.48-.74-1.12a1.19,1.19,0,0,1,.08-.16.79.79,0,0,1,.7-.09.8.8,0,0,1,.29.22,1,1,0,0,1,.1.9A.46.46,0,0,1,15.24,18.23Z"/><path class="cls-219" d="M14.07,17.07l-.71-.1a.73.73,0,0,1-.08-.93.82.82,0,0,1,1.13,0,.77.77,0,0,1-.08.95l0,.1-.12,0Z"/><path class="cls-220" d="M15.24,18.23l.07-.25a.7.7,0,0,1,1,0,.83.83,0,0,1,0,1,.78.78,0,0,1-1-.06Z"/><path class="cls-221" d="M15.28,18.93l.94,0a.6.6,0,0,1,.22.32.72.72,0,0,1-.23.72.71.71,0,0,1-.91-.13Z"/><path class="cls-222" d="M16.24,21.09h-1v-1a1.21,1.21,0,0,1,1,0A.75.75,0,0,1,16.24,21.09Z"/><path class="cls-223" d="M16.24,21.09v-.95a.69.69,0,0,1,1,0h0v1Z"/><path class="cls-43" d="M22.23,22.05h1c0,.32,0,.64,0,1h0a.71.71,0,0,1-.84.12L22.23,23Z"/><path class="cls-70" d="M10.25,23c.74-.1,1.06.22.95,1h0a.73.73,0,0,1-1,0h0a.73.73,0,0,1,0-1Z"/><path class="cls-212" d="M22.25,24h-1c-.11-.75.2-1.08.95-1h0a.73.73,0,0,1,0,1Z"/><path class="cls-224" d="M17.2,20.13h-1l-1,0c0-.08,0-.16,0-.25h.95a.68.68,0,0,1,.93,0Z"/><path class="cls-225" d="M18.16,25.88c-.27,0-.73,0-.76.13-.36,1.23-1.35.72-2.12.82-.71-1.15.58-1.16,1-1.69h1.92A.54.54,0,0,1,18.16,25.88Z"/><path class="cls-226" d="M16.24,25.14c0,.32,0,.67-.41.72-.65.08-.53.56-.55,1H13.12c-.25-.52.19-.61.49-.68a.82.82,0,0,0,.71-1Z"/><path class="cls-227" d="M18.16,25.88v-.73h1v.73Z"/><path class="cls-228" d="M22.25,24l0-1h1v1Z"/><path class="cls-229" d="M24.15,13.9v1a1.29,1.29,0,0,1-1.1.34c-1.32,0-2.63.05-3.94,0-1.1-.07-1.16-1-1.26-1.74S17.8,12,18.81,12c.39.07.55.36.67.69a2.26,2.26,0,0,1,.13.33c.09.63.56.53,1,.52s1.15,0,1.72,0S23.61,13.42,24.15,13.9Z"/><path class="cls-230" d="M19.12,12.22c-.82-.11-1.12.33-.94,1s-.13,1.62,1.08,1.6c1.63,0,3.26,0,4.89,0h.93a.36.36,0,0,1,0,.23,1.3,1.3,0,0,1-.94.35,8.49,8.49,0,0,1-1,0c-.6,0-1.21,0-1.81,0-.33,0-.66,0-1,0s-.65,0-1,0a2.23,2.23,0,0,1-1.11-.18c-.38-.33-.64-.81-1.11-1.06a.87.87,0,0,1-.18-.31,2.61,2.61,0,0,1-.1-.92,2,2,0,0,1,.11-.76,1,1,0,0,1,.24-.32,1.58,1.58,0,0,1,1-.22C18.58,11.73,19.07,11.63,19.12,12.22Z"/><path class="cls-231" d="M24.15,13.9H22.23a.6.6,0,0,1-.08-.73c.29-.33.71-.32,1.08-.45a1,1,0,0,1,.92.22,1.93,1.93,0,0,0,0,.24C24.15,13.42,24.15,13.66,24.15,13.9Z"/><path class="cls-86" d="M25.35,12V10.07a.52.52,0,0,1,.72,0h0a3.27,3.27,0,0,1,0,1.91Z"/><path class="cls-119" d="M26.07,12V10.08c.47.58.13,1.27.24,1.91Z"/><path class="cls-232" d="M26.31,19.89h-.24c-.62,0-1.08,0-.82-.9a8,8,0,0,0,.1-2,.51.51,0,0,1,.72,0C25.92,18,26.36,18.92,26.31,19.89Z"/><path class="cls-233" d="M26.07,17h-.72v-.94h.72Z"/><path class="cls-234" d="M24.16,15.14l.94-.05c0,.32,0,.64,0,1h0a.73.73,0,0,1-1,0A.68.68,0,0,1,24.16,15.14Z"/><path class="cls-235" d="M24.13,21.1c-.73.08-1-.25-.95-1s0-1.43,0-2.15a.66.66,0,0,1,.95,0Z"/><path class="cls-236" d="M24.15,16.06h1c.1.75-.23,1.06-1,1L24,16.91a.75.75,0,0,1,0-.74Z"/><path class="cls-237" d="M24.14,18h-.95a.73.73,0,0,1,0-1,.75.75,0,0,1,1,0h0Z"/><path class="cls-238" d="M26.07,20.13c.05.53-.2.77-.73.72C25.3,20.32,25.54,20.08,26.07,20.13Z"/><path class="cls-239" d="M26.07,10.08h-.72c0-.5-.05-1,.71-1C26.06,9.44,26.06,9.76,26.07,10.08Z"/><path class="cls-240" d="M26,8c-.51,0-.77-.21-.71-.74l.75,0C26.05,7.46,26,7.72,26,8Z"/><path class="cls-241" d="M5.17,10.08l.07-1h.93v1h0a.64.64,0,0,1-.91,0Z"/><path class="cls-242" d="M7.35,14.89l0-1c.53.06.77-.19.72-.71.54,0,.86.52,1.39.53a36.54,36.54,0,0,0,4.44,0,.63.63,0,0,1,.3.28.72.72,0,0,1-.41,1.07A30.86,30.86,0,0,1,7.51,15Z"/><path class="cls-243" d="M8.09,10.08c0-.8,0-1.58.81-2.07.25-.15.12-.51.15-.79l.14-.11a.52.52,0,0,1,.27.22A1.63,1.63,0,0,1,9.59,8a1.45,1.45,0,0,1-.38,1.12,2.57,2.57,0,0,0-.82.91A.3.3,0,0,1,8.09,10.08Z"/><path class="cls-244" d="M9.29,13.91c-.65.17-.93-.28-1.2-.72V12l.14-.08a.44.44,0,0,1,.25.19,1.32,1.32,0,0,0,.57.7,1.13,1.13,0,0,1,.33.36.72.72,0,0,1,0,.64Z"/><path class="cls-245" d="M9.31,7.17l-.26,0c-.76-.08-1.57-.35-1.93.68V7l1,0L9.27,7A.12.12,0,0,1,9.31,7.17Z"/><path class="cls-246" d="M8.33,12H8.1c0-.63,0-1.27,0-1.9h.22l.16.14A1.57,1.57,0,0,1,8.33,12Z"/><path class="cls-70" d="M5.26,10.06l.91,0V12H5.26Z"/><path class="cls-247" d="M7.15,14.81a.5.5,0,0,0,.2.08h0a.89.89,0,0,1,.22.29.93.93,0,0,1-.12.88.25.25,0,0,1-.33,0l0-.07Z"/><path class="cls-248" d="M7.12,16.09,7.36,16a1.15,1.15,0,0,1,.35,1,2.09,2.09,0,0,1-.58,1.94c-.53.43-.69.13-.71-.37s0-1,0-1.54C7.14,17.08,7.17,16.62,7.12,16.09Z"/><path class="cls-249" d="M7.13,18.93A5,5,0,0,0,7.37,17a.51.51,0,0,1,.76,0c0,.62,0,1.25,0,1.88Z"/><path class="cls-250" d="M8.13,17.05l-.76,0c0-.33,0-.67,0-1v-.9c.21-.21.46-.12.69-.1a5.87,5.87,0,0,0,1.34,1.09.69.69,0,0,1-.12.87l0,.05a.72.72,0,0,1-.95,0A.74.74,0,0,0,8.13,17.05Z"/><path class="cls-251" d="M8.34,17.06l.95,0v4a.63.63,0,0,1-.9,0A2.43,2.43,0,0,0,8.65,18,1.13,1.13,0,0,1,8.34,17.06Z"/><path class="cls-252" d="M8.38,21.11l.9,0c0,.33,0,.67,0,1a.71.71,0,0,1-.95,0h0Z"/><path class="cls-253" d="M8.32,22.05l.95,0c0,.31,0,.62,0,.94C8.58,23.07,8.14,22.87,8.32,22.05Z"/><path class="cls-254" d="M10.24,23c0,.32,0,.65,0,1h-1V23Z"/><path class="cls-255" d="M10.23,24h1c0,.32,0,.65,0,1l-.93,0C10.25,24.61,10.24,24.29,10.23,24Z"/><path class="cls-256" d="M22.24,6l0,.25C21.57,6.83,21,7.63,20,7c-.43-1.13.63-.7,1-1h1.21Z"/><path class="cls-257" d="M21,6c-.28.35-1.11.14-1,.93A.55.55,0,0,1,19.3,7a.8.8,0,0,1,.06-1H21Z"/><path class="cls-258" d="M19.34,6.93h.73c.47,0,1,.2,1.28-.47.14-.33.54-.21.84-.21l.08,0a.55.55,0,0,1,0,.71l0,.24a1.28,1.28,0,0,1-1,.35,11.11,11.11,0,0,1-2.7-.09,1,1,0,0,1-.34-.23l-.12,0A1.8,1.8,0,0,0,18.17,7l.22,0A.71.71,0,0,1,19.34,6.93Z"/><path class="cls-259" d="M19.34,6.93l-.95,0c-.09-.74.57-.71,1-.94Z"/><path class="cls-260" d="M9.31,7.17a.19.19,0,0,0,0-.2c0-.31,0-.62.05-.93h.9a.86.86,0,0,1,.07,1.19.69.69,0,0,1-1,0Z"/><path class="cls-261" d="M12.16,6h1c.74-.1,1.05.22,1,1a1.61,1.61,0,0,1-1.9.09.72.72,0,0,1,0-1Z"/><path class="cls-262" d="M12.19,6.93l1.9,0,.17,0c.34-.06.67-.26,1,0V7.2a.75.75,0,0,1,.19.73.87.87,0,0,1-.22.32c-.21.13-.5.23-.66.09-.73-.61-1.71-.69-2.46-1.23Z"/><path class="cls-263" d="M15.28,7c-.33.2-.66.44-1,0,0-.33,0-.66.05-1l.87,0Z"/><path class="cls-264" d="M10.21,7.16c0-.38,0-.76,0-1.14l1,0h0a.93.93,0,0,1,.1,1.19.82.82,0,0,1-.84.19A.45.45,0,0,1,10.21,7.16Z"/><path class="cls-265" d="M11.25,7l0-1h.95l0,.91,0,.07A.66.66,0,0,1,11.25,7Z"/><path class="cls-266" d="M18.21,7.22h.19c.44,1.3.11,1.83-1.13,1.79A.67.67,0,0,1,17,8.25a.57.57,0,0,1,.27-.32C17.87,8.07,18.21,7.86,18.21,7.22Z"/><path class="cls-267" d="M15.3,7.93l0-.73c.5,0,1,0,1,.7A.62.62,0,0,1,15.3,7.93Z"/><path class="cls-268" d="M15.3,7.93l.95,0,1,0a2.44,2.44,0,0,1-.1.24,1.07,1.07,0,0,1-.8.29,2.79,2.79,0,0,1-.86-.08.73.73,0,0,1-.28-.19Z"/><path class="cls-269" d="M24.14,10.08V12a.73.73,0,0,1-1,0,1.34,1.34,0,0,1-.32-1,1.36,1.36,0,0,1,.3-1A.73.73,0,0,1,24.14,10.08Z"/><path class="cls-270" d="M22.24,7.93l.93,0,.06,1.15a.4.4,0,0,1-.22.24.85.85,0,0,1-.81-.13,1,1,0,0,1-.21-.8A.88.88,0,0,1,22.11,8Z"/><path class="cls-271" d="M24.14,10.08l-.92,0L23.08,10a.67.67,0,0,1,.09-.81l.06-.09C23.93,9,24.3,9.33,24.14,10.08Z"/><path class="cls-272" d="M23.23,12l.91,0c0,.32,0,.64,0,1h-.9l-.15-.07a.73.73,0,0,1,0-.79Z"/><path class="cls-273" d="M22.24,7l0-.71c.49,0,1,0,.91.71Z"/><path class="cls-274" d="M21.26,7.21l.95,0,0,.74h0a.77.77,0,0,1-1,.07A.59.59,0,0,1,21.26,7.21Z"/><path class="cls-275" d="M13.36,16.06V17H11.2a.75.75,0,0,1,0-1,1.54,1.54,0,0,1,1-.28A1.4,1.4,0,0,1,13.36,16.06Z"/><path class="cls-276" d="M9.27,17l0-.92.11-.12a.86.86,0,0,1,.81,0,.61.61,0,0,1,.21.26.71.71,0,0,1-.17.78Z"/><path class="cls-277" d="M10.25,17v-.92a.65.65,0,0,1,1,0V17Z"/><path class="cls-212" d="M23.18,17.05V18h-1a21.6,21.6,0,0,0-3.21.13c-1,.2-.49-.64-.62-1a.81.81,0,0,1,.68-.36,5.38,5.38,0,0,1,1,0c.39,0,.77,0,1.15,0s.63,0,.94,0a1.7,1.7,0,0,1,.91.21Z"/><path class="cls-278" d="M16.26,19.12a.94.94,0,0,0,0-.16l0-1,.1-.12a.8.8,0,0,1,.78,0l.11.12v1a.56.56,0,0,0-.09.19A.53.53,0,0,1,16.26,19.12Z"/><path class="cls-279" d="M19.11,17l-.71.09-.1,0h-.1L18,16.93a.8.8,0,0,1,.12-1,.91.91,0,0,1,1,0A.74.74,0,0,1,19.11,17Z"/><path class="cls-280" d="M18.2,17.06c0,.68-.18,1.09-1,.91l-.09,0a.83.83,0,0,1,0-1,.71.71,0,0,1,1,0Z"/><path class="cls-281" d="M16.26,19.12h.88c0,.25,0,.5,0,.75h-.93C16.25,19.62,16.26,19.37,16.26,19.12Z"/><path class="cls-282" d="M16.25,18h-.94c0-.32,0-.65,0-1l.14-.13a.74.74,0,0,1,.9.19.73.73,0,0,1-.09.91Z"/><path class="cls-283" d="M14.33,17l0-.92a.58.58,0,0,1,.78-.06A.69.69,0,0,1,15,17Z"/><path class="cls-284" d="M15,17v-.93a.72.72,0,0,1-.07-.93.3.3,0,0,1,.38,0,1.39,1.39,0,0,1,.26,1,1.25,1.25,0,0,1-.34,1l0,0Z"/><path class="cls-285" d="M13.36,16.06h-1.2a.73.73,0,0,1,0-1,5.74,5.74,0,0,1,1.94,0,.7.7,0,0,1,0,1Z"/><path class="cls-286" d="M14.1,16.05l0-1c-.08,0-.11-.1-.08-.16s.06-.07.09-.07l0,0a.29.29,0,0,1,.25-.13.89.89,0,0,1,.66.35c0,.32,0,.63,0,.95H14.3Z"/><path class="cls-287" d="M19.12,12.22c-.24-.38-.64-.18-1-.24a.73.73,0,0,1,0-1,1,1,0,0,1,1.17-.09,1.14,1.14,0,0,1,.38.88,2.69,2.69,0,0,1-.1.93.62.62,0,0,1-.24.27C19.11,12.78,19.18,12.49,19.12,12.22Z"/><path class="cls-288" d="M22.24,13.21v.7H20.31a.6.6,0,0,1,0-.82A1.64,1.64,0,0,1,22.24,13.21Z"/><path class="cls-289" d="M22.24,13.21H20.31a.71.71,0,0,1-1,0,1.23,1.23,0,0,1,0-.19l0-.12a2.94,2.94,0,0,1,1.82-.28,8.68,8.68,0,0,1,1,0,1.26,1.26,0,0,1,.95.33l.09,0C23,13.27,22.58,13.16,22.24,13.21Z"/><path class="cls-290" d="M19.35,13.19l1,0v.7C19.8,13.93,19.29,13.94,19.35,13.19Z"/><path class="cls-291" d="M21.27,15.14h1.91a.69.69,0,0,1,.17.81.64.64,0,0,1-.23.26,2,2,0,0,1-.87.15,2.14,2.14,0,0,1-.87-.13.57.57,0,0,1-.26-.25A.73.73,0,0,1,21.27,15.14Z"/><path class="cls-292" d="M19.11,17v-.92a.9.9,0,0,1,.21-.91h1a.9.9,0,0,1,.21.86,1.66,1.66,0,0,1-.46,1Z"/><path class="cls-293" d="M17.18,13.89a.34.34,0,0,1,0,.22l-.11.15a1.61,1.61,0,0,1-.87.19,2,2,0,0,1-.9-.16A.62.62,0,0,1,15.1,14a.85.85,0,0,1,.17-.9.94.94,0,0,1,.89-.07C16.52,13.29,16.83,13.61,17.18,13.89Z"/><path class="cls-294" d="M19.33,15.15c0,.32.11.67-.21.91h-.95A.64.64,0,0,1,18,15.3a.47.47,0,0,1,.23-.23Z"/><path class="cls-295" d="M18.16,11v1h-1l-.12-.13a.69.69,0,0,1,1-.94Z"/><path class="cls-296" d="M17.18,13.89c-.53,0-1,0-.95-.7a.24.24,0,0,1,0-.33.69.69,0,0,1,.89.09Z"/><path class="cls-297" d="M17.22,14.11c.8-.17,1,.28,1,1l-.07,0a.72.72,0,0,1-1,0,.74.74,0,0,1,.05-1Z"/><path class="cls-298" d="M20.31,16.06v-.93h.95v.92A.65.65,0,0,1,20.31,16.06Z"/><path class="cls-299" d="M23.19,16.06c0-.31,0-.61,0-.92h1c0,.31,0,.61,0,.92h0A.67.67,0,0,1,23.19,16.06Z"/><path class="cls-300" d="M17.16,13h-.91a.57.57,0,0,1-.05-.78.72.72,0,0,1,1,.07Z"/><path class="cls-301" d="M17.17,12.24h-.92a.71.71,0,0,1-.92.08.28.28,0,0,1,0-.37,1.35,1.35,0,0,1,.95-.27,1.22,1.22,0,0,1,.94.33l0,0Z"/><path class="cls-302" d="M23.19,16.06h1v1l-1,0,0-.06a.66.66,0,0,1,0-.93Z"/><path class="cls-303" d="M14.09,13.91a10.66,10.66,0,0,1-4.8,0h0a1.29,1.29,0,0,1,.92-.33c.56,0,1.13,0,1.69,0s.87,0,1.1-.46a1,1,0,0,1,.41-.31.78.78,0,0,1,.71.09.81.81,0,0,1,.1.89Z"/><path class="cls-304" d="M14.09,14.87a.36.36,0,0,1,0,.23l-1.92.05a2.68,2.68,0,0,1-1.84.3,9.19,9.19,0,0,1-1.05,0,1.64,1.64,0,0,1-1.19-.32H7.36v-.24Z"/><path class="cls-305" d="M15.27,12l0,.24a.72.72,0,0,1,0,.94l-.1,1a.79.79,0,0,1-1.13,0v-.25h0c.78-.85.77-1-.08-1.36a1.15,1.15,0,0,1-.65-.26.34.34,0,0,1,0-.35,1.25,1.25,0,0,1,.89-.26,1.69,1.69,0,0,1,.91.17Z"/><path class="cls-306" d="M14.1,14.16l1.13,0h.07c.36,1.18-.44.8-1,.75h-.18Z"/><path class="cls-307" d="M9,9.1a1.74,1.74,0,0,0,.25-1.18.77.77,0,0,1,.92-.12.67.67,0,0,1,.24.31,1.13,1.13,0,0,1-.09,1,.94.94,0,0,1-.85.31.82.82,0,0,1-.35-.13Z"/><path class="cls-308" d="M8.31,10.07c0-.51,0-1,.73-1v0c.29.93.19,1.07-.7.95Z"/><path class="cls-309" d="M10.21,8l-.92,0,0-.74.9,0,0,0A.51.51,0,0,1,10.21,8Z"/><path class="cls-310" d="M8.35,10.08c.74.06.71-.46.7-.95H9.3a1.36,1.36,0,0,1,.32.92,7.87,7.87,0,0,1,0,1,12.31,12.31,0,0,1-.05,1.72,1.13,1.13,0,0,1-.14.36l-.15.14L9,13c-.3-.28-.36-.72-.7-1h0C8.34,11.35,8.34,10.72,8.35,10.08Z"/><path class="cls-311" d="M10.25,13.9h-1v-.74a.78.78,0,0,1,1,0A.59.59,0,0,1,10.25,13.9Z"/><path class="cls-246" d="M8.33,12c.77-.06.75.45.7,1C8.28,13,8.31,12.49,8.33,12Z"/><path class="cls-312" d="M8.08,15.13l1.21,0a.63.63,0,0,1,0,.91h0C8.61,16.11,8,16.12,8.08,15.13Z"/><path class="cls-59" d="M21.26,7.21v.7c-.6.66-1,1.53-2.12,1.54-.31,0-.62,0-.93,0a1.53,1.53,0,0,1-.91-.23.27.27,0,0,1-.07-.34C18.51,9,18.29,8,18.4,7.22Z"/><path class="cls-313" d="M11.25,7l.9,0c1.26-.2,2,1,3.08,1.19l0,0a1.23,1.23,0,0,1,.32.91,1.65,1.65,0,0,1-.2.95.84.84,0,0,1-.86.26.9.9,0,0,1-.3-.17,1.93,1.93,0,0,0-1-.93c-.45-.86-1.44-.81-2.12-1.28a.62.62,0,0,1,.09-.69A.39.39,0,0,0,11.25,7Z"/><path class="cls-314" d="M11.19,7.21l.08.68a.32.32,0,0,1-.08.36.72.72,0,0,1-.91-.07A1.87,1.87,0,0,1,10.21,8c0-.25,0-.51,0-.76Z"/><path class="cls-315" d="M17.23,8.88l0,.24-.12.12a.85.85,0,0,1-.82,0A.62.62,0,0,1,16.06,9a.75.75,0,0,1,.18-.8h.93Z"/><path class="cls-316" d="M16.24,8.16l0,.91a.61.61,0,0,1-1,0l0-.94Z"/><path class="cls-317" d="M23.22,10.06l0,1a.73.73,0,0,1-1,0,.78.78,0,0,1,0-1,.71.71,0,0,1,1,0Z"/><path class="cls-318" d="M22.27,11.05h.91c0,.32,0,.65,0,1l0,0a.73.73,0,0,1-.79.18.6.6,0,0,1-.27-.2.8.8,0,0,1,0-.82A.71.71,0,0,1,22.27,11.05Z"/><path class="cls-319" d="M19.14,9.13c.44-.06.91.06,1-.67s.81-.23,1.14-.55h1l0,.25a1.24,1.24,0,0,0-.62,1.08,1.47,1.47,0,0,1-.23.85,1.33,1.33,0,0,1-.88.29H20.1a1.7,1.7,0,0,1-.74-.16A1,1,0,0,1,19,9.82.6.6,0,0,1,19.14,9.13Z"/><path class="cls-320" d="M23.17,10.07h-.94a1.14,1.14,0,0,1-.11-.11.73.73,0,0,1,0-.74l.11-.11,1,0Z"/><path class="cls-321" d="M21.27,9.11c-.11-.72.18-1.07.94-.94,0,.32,0,.64,0,.95h0A.69.69,0,0,1,21.27,9.11Z"/><path class="cls-322" d="M22.28,12l.9,0c0,.31,0,.63,0,.95h-.92C22,12.62,21.94,12.31,22.28,12Z"/><path class="cls-323" d="M10.24,15.15h1.92v.91H10.25A.65.65,0,0,1,10.24,15.15Z"/><path class="cls-324" d="M10.24,15.15v.91h-1v-.91Z"/><path class="cls-325" d="M20.31,16.06h1a.64.64,0,0,1,0,.92h-1.2C20.1,16.66,20,16.3,20.31,16.06Z"/><path class="cls-326" d="M21.27,17v-.92h1a.66.66,0,0,1,0,.93Z"/><path class="cls-327" d="M22.23,17v-.93h1c0,.31,0,.62,0,.93Z"/><path class="cls-328" d="M16.24,18v-.91s.05-.09.07-.14a.76.76,0,0,1,.77,0l.11.12c0,.33,0,.66-.05,1Z"/><path class="cls-329" d="M17.26,15.11h.88l0,1c0,.31,0,.61,0,.92l-.93,0h0A1.66,1.66,0,0,1,17,15.37.51.51,0,0,1,17.26,15.11Z"/><path class="cls-330" d="M15.27,17l.05-1a.72.72,0,0,1,1,0,.71.71,0,0,1-.05,1v.1Z"/><path class="cls-331" d="M14.3,14.89c.51,0,1,0,1-.75l1,0a.73.73,0,0,1,0,1,.75.75,0,0,1-1,0H15C14.77,15.09,14.49,15.14,14.3,14.89Z"/><path class="cls-332" d="M15.28,15.1l1-.07a.52.52,0,0,1,.2.26.7.7,0,0,1-.2.78h-.91C15.31,15.74,15.29,15.42,15.28,15.1Z"/><path class="cls-333" d="M21.27,12.94l-1.9-.06V12a.88.88,0,0,1,.76-.2C20.65,12,21.7,11.75,21.27,12.94Z"/><path class="cls-334" d="M19.15,9.84l.21.23a.73.73,0,0,1,.13.86l-.13.13-1.2,0h0a.73.73,0,0,1-.2-.8.66.66,0,0,1,.2-.27A1.29,1.29,0,0,1,19.15,9.84Z"/><path class="cls-335" d="M20.07,12h-.7c0-.31,0-.62,0-.93V11a.63.63,0,0,1,.73-.06.74.74,0,0,1,.12.9Z"/><path class="cls-336" d="M21.27,12.94c.15-1-.92-.49-1.2-.95h0a2.11,2.11,0,0,1,.31-.21,2.69,2.69,0,0,1,.94-.1,1.24,1.24,0,0,1,.88.31l.06,0c0,.3,0,.61,0,.92Z"/><path class="cls-337" d="M16.23,15l0-.87.95,0c0,.32,0,.65.05,1h-.09a.67.67,0,0,1-.93,0Z"/><path class="cls-338" d="M15.33,13.17c0-.31,0-.62,0-.94h.94V13c0,.08,0,.16,0,.24Z"/><path class="cls-339" d="M18.19,10.11l0,.93-.94,0L17.09,11a.86.86,0,0,1,0-.85.61.61,0,0,1,.29-.21A.69.69,0,0,1,18.19,10.11Z"/><path class="cls-340" d="M17.21,12l-.95,0a.73.73,0,0,1-.09-1,.75.75,0,0,1,1,0l.08.07Z"/><path class="cls-341" d="M16.22,11.05c0,.31,0,.61,0,.91l-1,0h0a.79.79,0,0,1-.17-.85.62.62,0,0,1,.26-.27A.69.69,0,0,1,16.22,11.05Z"/><path class="cls-157" d="M14.08,12.23c.57-.05,1,0,1,.78s-.31,1-1,.9c0-.32,0-.64,0-1A.53.53,0,0,1,14.08,12.23Z"/><path class="cls-342" d="M10.25,13.9v-.69a1.64,1.64,0,0,1,1.9-.13.58.58,0,0,1,0,.82Z"/><path class="cls-343" d="M12.17,13.21H10.24l-1-.05c0-.08,0-.16,0-.24a1.3,1.3,0,0,1,.91-.3c.31,0,.63,0,.94,0s.57,0,.86,0c.53.09.8-.28,1.09-.63a.28.28,0,0,1,.29,0,1.8,1.8,0,0,0,0,.22.52.52,0,0,1,0,.72l-.23.25A.72.72,0,0,1,12.17,13.21Z"/><path class="cls-344" d="M12.17,13.21h1c0,.76-.46.72-1,.7Z"/><path class="cls-345" d="M13.36,13c0-.24,0-.48,0-.72h.71V13Z"/><path class="cls-346" d="M13.39,12l-.24,0L13,11.87A.84.84,0,0,1,13,11a3.29,3.29,0,0,0,1-1,.25.25,0,0,1,.3,0v0a1.29,1.29,0,0,1,.33.94,1.28,1.28,0,0,1-.32,1Z"/><path class="cls-347" d="M14.33,12V11c.34-.21.65-.24.91.11l0,.91Z"/><path class="cls-348" d="M10.28,8.18l1-.11c.74-.09,1.33,0,1,1a1.08,1.08,0,0,1-.92.38,1.76,1.76,0,0,1-1-.18l-.13-.14Z"/><path class="cls-349" d="M9.31,10.07v-1h.94a.73.73,0,0,1,0,1A.7.7,0,0,1,9.31,10.07Z"/><path class="cls-350" d="M10.24,12.92H9.3V11a.73.73,0,0,1,.92-.09,1.21,1.21,0,0,1,.34.9,2.54,2.54,0,0,1,0,.39A1,1,0,0,1,10.24,12.92Z"/><path class="cls-351" d="M10.2,11l-.9,0c0-.33,0-.65,0-1h.87l.14,0a.74.74,0,0,1,.09.72A.33.33,0,0,1,10.2,11Z"/><path class="cls-70" d="M18.19,10.11l-1,0a.73.73,0,0,1,0-1l.05,0h.95a.72.72,0,0,1,0,1Z"/><path class="cls-352" d="M18.17,10.09v-1h1v.71C18.9,10.22,18.5,10,18.17,10.09Z"/><path class="cls-353" d="M12.22,9.06c.08-.71-.15-1.11-.94-1a.37.37,0,0,1,0-.18c1,0,1.81.11,2.1,1.22.09.2,0,.28-.19.34a1.71,1.71,0,0,1-.77-.15A.41.41,0,0,1,12.22,9.06Z"/><path class="cls-354" d="M13.17,9.35l.2-.24c.75-.11,1,.25,1,1l-.26,0a.77.77,0,0,1-.83.15.51.51,0,0,1-.07-.89Z"/><path class="cls-355" d="M15.3,9.1l1,0,0,0a.76.76,0,0,1,.11.92.74.74,0,0,1-.91.17l-.15-.13Z"/><path class="cls-356" d="M15.24,11.09,14.33,11c0-.3,0-.6,0-.9h1v0a.67.67,0,0,1,0,.94Z"/><path class="cls-357" d="M16.25,10V9.12l.92,0c0,.33,0,.65,0,1h0A.61.61,0,0,1,16.25,10Z"/><path class="cls-358" d="M20.34,10.1l.92-.06a.72.72,0,0,1,1,0h0l0,1-.07,0a1.2,1.2,0,0,1-.95.34,1.3,1.3,0,0,1-1-.29A.72.72,0,0,1,20.34,10.1Z"/><path class="cls-359" d="M21.27,11l.93,0,0,1h-.94A.67.67,0,0,1,21.27,11Z"/><path class="cls-360" d="M22.22,10.08l-1,0c0-.31,0-.62,0-.93h1Z"/><path class="cls-361" d="M20.05,11h-.7c0-.31,0-.63,0-.94h.72A.85.85,0,0,1,20.05,11Z"/><path class="cls-362" d="M20.05,11l0-.94.26,0V11a.71.71,0,0,1,0,1h-.24C20.08,11.66,20.06,11.34,20.05,11Z"/><path class="cls-363" d="M16.24,15.13l.93,0c0,.64,0,1.28,0,1.91l-1,0c0-.3,0-.6,0-.91S16.24,15.44,16.24,15.13Z"/><path class="cls-364" d="M20.33,12c0-.31,0-.63,0-1l.93,0c0,.31,0,.62,0,.94Z"/><path class="cls-61" d="M16.25,10l.94,0c0,.31,0,.62,0,.93l-.93.06L15.3,11c0-.31,0-.62,0-.94Z"/><path class="cls-365" d="M13.15,12c.06.71-.18,1.12-1,.94a.69.69,0,0,1-.21-.65.71.71,0,0,1,.17-.32.67.67,0,0,1,.32-.17.68.68,0,0,1,.66.21Z"/><path class="cls-366" d="M12.16,12.23c0,.23,0,.46,0,.7h-1a.58.58,0,0,1,0-.78A.73.73,0,0,1,12.16,12.23Z"/><path class="cls-367" d="M11.2,12.24v.69h-1l0-.7A.64.64,0,0,1,11.2,12.24Z"/><path class="cls-368" d="M13.11,12l-.71,0a1.67,1.67,0,0,1-.08-1.91.65.65,0,0,1,.83,0h0a.68.68,0,0,1,0,.94Z"/><path class="cls-369" d="M13.13,11v-.94l.94,0C14.28,10.93,13.88,11.14,13.13,11Z"/><path class="cls-370" d="M10.18,10.06l.06-1,.95,0a.75.75,0,0,1,.08,1,.74.74,0,0,1-1,0Z"/><path class="cls-371" d="M11.22,10l0-.9,1-.08h0a.83.83,0,0,1,0,1A.64.64,0,0,1,11.22,10Z"/><path class="cls-372" d="M10.27,12,10.2,11l.09,0a.7.7,0,0,1,1,0,.8.8,0,0,1,0,1A1,1,0,0,1,10.27,12Z"/><path class="cls-373" d="M10.27,12h.94a.79.79,0,0,1,.78-.15.42.42,0,0,1,.21.24c0,.06,0,.12,0,.18h-1l-.94,0Z"/><path class="cls-70" d="M11.2,11h-.91v-.95l.94-.05.94,0,.11.16c0,.31.11.64-.16.91A.76.76,0,0,1,11.2,11Z"/><path class="cls-374" d="M12.16,10.08c0-.34,0-.67.05-1,.33.07.73-.11,1,.28,0,.24,0,.47,0,.71l-.77,0c-.08.11-.16.1-.24,0Z"/><path class="cls-277" d="M12.14,10.1h.24c0,.63,0,1.26,0,1.89l-.2.07L12.14,12a.7.7,0,0,1,0-.93Z"/><path class="cls-375" d="M12.13,11c0,.31,0,.62,0,.93h-.93c0-.31,0-.62,0-.92Z"/></svg>